%FSTAX25Y25*%
%MOIN*%
%SFA1B1*%

%IPPOS*%
%ADD10O,0.082677X0.025591*%
%ADD11R,0.106299X0.220472*%
%ADD12R,0.220472X0.106299*%
%ADD13R,0.224409X0.078740*%
%ADD14R,0.062992X0.041339*%
%ADD15R,0.078740X0.224409*%
%ADD16R,0.074803X0.173228*%
%ADD17R,0.041339X0.062992*%
%ADD18C,0.039370*%
%ADD19C,0.078740*%
%ADD20C,0.070866*%
%ADD21C,0.078740*%
%ADD22C,0.051181*%
%ADD23C,0.074803*%
%ADD24C,0.059842*%
%ADD25C,0.053543*%
%ADD26C,0.244094*%
%ADD27R,0.059842X0.059842*%
%ADD28R,0.053543X0.053543*%
%ADD29C,0.125984*%
%ADD30R,0.051181X0.051181*%
%ADD31C,0.050000*%
G54D10*
X0870314Y0254488D03*
Y0249488D03*
Y0244488D03*
Y0239488D03*
Y0234488D03*
Y0229488D03*
Y0224488D03*
Y0219488D03*
Y0214488D03*
Y0209488D03*
X0908503Y0254488D03*
Y0249488D03*
Y0244488D03*
Y0239488D03*
Y0234488D03*
Y0229488D03*
Y0224488D03*
Y0219488D03*
Y0214488D03*
Y0209488D03*
X0060669Y0295511D03*
X006559Y0159488D03*
X0880393Y0126496D03*
Y0121496D03*
Y0116496D03*
Y0111496D03*
Y0106496D03*
Y0101496D03*
Y0096496D03*
Y0091496D03*
Y0086496D03*
Y0081496D03*
X0918582Y0126496D03*
Y0121496D03*
Y0116496D03*
Y0111496D03*
Y0106496D03*
Y0101496D03*
Y0096496D03*
Y0091496D03*
Y0086496D03*
Y0081496D03*
X0022519Y0310511D03*
Y0305511D03*
Y0300511D03*
Y0295511D03*
Y0290511D03*
Y0285511D03*
Y0280511D03*
Y0275511D03*
Y0270511D03*
Y0265511D03*
X0060669Y0310511D03*
Y0305511D03*
Y0300511D03*
Y0290511D03*
Y0285511D03*
Y0280511D03*
Y0275511D03*
Y0270511D03*
Y0265511D03*
X0027401Y0174488D03*
Y0169488D03*
Y0164488D03*
Y0159488D03*
Y0154488D03*
Y0149488D03*
Y0144488D03*
Y0139488D03*
Y0134488D03*
Y0129488D03*
X006559Y0174488D03*
Y0169488D03*
Y0164488D03*
Y0154488D03*
Y0149488D03*
Y0144488D03*
Y0139488D03*
Y0134488D03*
Y0129488D03*
G54D11*
X0884015Y0887519D03*
X0611377D03*
X0418425Y0886496D03*
X0683582Y0885D03*
X0518937D03*
X0739055Y0089488D03*
X0525078Y0092519D03*
X0418582Y0089488D03*
X062748Y0080984D03*
X0324921Y0887519D03*
X0218425Y0889015D03*
X0301062Y0095D03*
X0199488Y0097992D03*
X0397559Y0886496D03*
X0590511Y0887519D03*
X049807Y0885D03*
X0304055Y0887519D03*
X0197559Y0889015D03*
X0863149Y0887519D03*
X0648346Y0080984D03*
X0545944Y0092519D03*
X0439448Y0089488D03*
X0321929Y0095D03*
X0220354Y0097992D03*
X0759921Y0089488D03*
X0704448Y0885D03*
G54D12*
X0840511Y0823582D03*
X0839015Y0698149D03*
X0830511Y0480078D03*
X0829015Y0577637D03*
X0832007Y0346614D03*
X0085984Y0854921D03*
Y0779921D03*
X0085Y0709448D03*
Y0642007D03*
X0081496Y0549448D03*
X0085984Y0440433D03*
X0832007Y0367519D03*
X0830511Y0500944D03*
X0829015Y0598503D03*
X0839015Y0719015D03*
X0840511Y0844448D03*
X0085984Y0834055D03*
Y0419566D03*
X0085Y0688582D03*
X0085984Y0759055D03*
X0085Y0621141D03*
X0081496Y0528582D03*
G54D13*
X0794094Y081D03*
X0755905D03*
G54D14*
X0692992Y0835314D03*
X0122992Y0889291D03*
X011Y0110984D03*
X0692992Y08237D03*
X0122992Y0877677D03*
X011Y009937D03*
G54D15*
X0590511Y0827598D03*
Y0789409D03*
G54D16*
X0222007Y0845118D03*
Y0810866D03*
G54D17*
X0043188Y0909015D03*
X0054803D03*
G54D18*
X0919488Y0072519D02*
Y008D01*
X0878228Y0127204D02*
Y0128267D01*
X086248Y0144015D02*
X0878228Y0128267D01*
X0909015Y0209015D02*
X0912244Y0205748D01*
X0918622*
X0908503Y0249488D02*
X0922007D01*
X086685Y0255354D02*
Y0258149D01*
X0852992Y0272007D02*
X086685Y0258149D01*
X085748Y0249488D02*
X0870314D01*
X0922125Y0122204D02*
X0922322Y0122362D01*
X0923149*
X0918582Y0121496D02*
X0919291Y0122204D01*
X0922125*
X0923149Y0122362D02*
X0926299Y0125511D01*
X0932992*
X0013503Y0273031D02*
Y0297519D01*
X0012992Y0307795D02*
X0015314Y0305511D01*
X0022519*
X0012992Y0307795D02*
Y0322519D01*
X0020984Y0330511*
X0027598Y0177165D02*
X0030078D01*
X0027401Y0176968D02*
X0027598Y0177165D01*
X0027401Y0174488D02*
Y0176968D01*
G54D19*
X0919488Y0072519D02*
X0924015Y0067992D01*
X0925275Y0086732D02*
X092937D01*
X0934015Y0051614D02*
Y0082086D01*
X092937Y0086732D02*
X0934015Y0082086D01*
X0857992Y0144015D02*
X086248D01*
X0529015Y0121496D02*
X0874015D01*
X0435984Y0214488D02*
X0529015Y0121496D01*
X091496Y0214488D02*
X0920826Y0220354D01*
Y0221338*
X0926692Y0227204*
X0921259Y0208385D02*
X0930275D01*
X0918622Y0205748D02*
X0921259Y0208385D01*
X0935984Y0214094D02*
Y0298385D01*
X0931377Y0302992D02*
X0935984Y0298385D01*
X0930275Y0208385D02*
X0935984Y0214094D01*
X0797007Y0302992D02*
X0931377D01*
X0922007Y0249488D02*
X0922519Y0249015D01*
X0852007Y0244015D02*
X085748Y0249488D01*
X0863464Y0086496D02*
X0873937D01*
X0845472Y0104488D02*
X0863464Y0086496D01*
X0835Y0104488D02*
X0845472D01*
X0755944Y0182047D02*
X0785Y0152992D01*
X0606574Y0182047D02*
X0755944D01*
X057748Y0211102D02*
X0606574Y0182047D01*
X057748Y0211102D02*
Y0570511D01*
X0438503Y0709488D02*
X057748Y0570511D01*
X0225629Y0709488D02*
X0438503D01*
X0220984Y0704881D02*
X0225629Y0709488D01*
X0220984Y0617519D02*
Y0704881D01*
X0219488Y0415511D02*
Y0512992D01*
Y0415511D02*
X0221496Y0413503D01*
X0769015Y019D02*
X0892992D01*
X0808976Y0224763D02*
X081874Y0215D01*
X076437Y0224763D02*
X0808976D01*
X0719685Y0239291D02*
X0769015Y019D01*
X081874Y0215D02*
X0863346D01*
X0741496Y0247598D02*
X076437Y0224763D01*
X0844015Y0233503D02*
X0859842D01*
X0863818Y0229488*
X0780511Y0297007D02*
X0844015Y0233503D01*
X0796496Y030248D02*
X0797007Y0302992D01*
X0093346Y0129488D02*
X0115511D01*
X0092125Y0128267D02*
X0093346Y0129488D01*
X0463897Y0599015D02*
X0468503Y059437D01*
Y0285511D02*
Y059437D01*
X0374251Y0599015D02*
X0463897D01*
X0370511Y018748D02*
X0468503Y0285511D01*
X0443385Y0580984D02*
X0447992Y0576377D01*
Y0307007D02*
Y0576377D01*
X0365511Y0580984D02*
X0443385D01*
X0864291Y0322519D02*
X0906299Y0364488D01*
X0907007Y0817992D02*
X0935984Y0789015D01*
X0906299Y0344488D02*
X0932401D01*
X0907007Y0817992D02*
X0909015Y0815984D01*
X0897007Y0416614D02*
Y0476496D01*
X0901614Y0412007D02*
X0932401D01*
X0937007Y0407401*
X0772007Y0429015D02*
X0786259Y0414763D01*
X0778622Y0527519D02*
X0865984D01*
X0774015Y0522874D02*
X0778622Y0527519D01*
X0774015Y0476496D02*
Y0522874D01*
X0182755Y0541496D02*
X0335984D01*
X0356614Y0564685D02*
X0361811Y0569881D01*
X0178661Y0537401D02*
X0182755Y0541496D01*
X0356614Y0562125D02*
Y0564685D01*
X0361811Y0569881D02*
X036437D01*
X0365511Y0570984*
X0335984Y0541496D02*
X0356614Y0562125D01*
X0154881Y0357401D02*
X0178661D01*
X0152992Y0355511D02*
X0154881Y0357401D01*
X0335511Y0355D02*
Y0423503D01*
X0345511Y0421102D02*
X0356732Y0432362D01*
X0346496Y0434488D02*
Y0489488D01*
X0335511Y0423503D02*
X0346496Y0434488D01*
X0356732Y0438622D02*
X0356771D01*
Y0501259*
X0345511Y0355D02*
Y0421102D01*
X0356732Y0432362D02*
Y0438622D01*
X0330118Y0491496D02*
X0332007D01*
X0352992Y0505D02*
X0356771Y0501259D01*
X0325511Y0486889D02*
X0330118Y0491496D01*
X0346496Y0489488D02*
X0347992Y0490984D01*
X092937Y0047007D02*
X0934015Y0051614D01*
X0897007Y0047007D02*
X092937D01*
X0655Y0262007D02*
X0707007Y021D01*
X0655Y0262007D02*
Y0524015D01*
X0344251Y051874D02*
Y0525D01*
X0316732Y0491259D02*
X0344251Y051874D01*
X0316732Y0460511D02*
Y0491259D01*
X0365511Y0560984D02*
X0400511Y0525984D01*
X0752007Y0264015D02*
X0761496Y0254488D01*
X0752007Y0264015D02*
Y0306496D01*
X0786259Y0340748*
Y0414763*
X0760748Y0278976D02*
X0774173Y0265551D01*
X0760748Y0278976D02*
Y0299763D01*
X0804015Y0342992*
X0774173Y0265551D02*
X078996D01*
X0804015Y0342992D02*
Y0462992D01*
X0816023Y0356889D02*
Y0471299D01*
X0719685Y0239291D02*
Y0419685D01*
X0736496Y0481496D02*
X0762519Y050748D01*
X0305511Y0449291D02*
X0316732Y0460511D01*
X0305511Y0355D02*
Y0449291D01*
X0306496Y0481732D02*
Y0520511D01*
X029437Y0469606D02*
X0306496Y0481732D01*
X0325511Y0355D02*
Y0486889D01*
X029437Y0460393D02*
X0296023Y0458779D01*
X029437Y0460393D02*
Y0469606D01*
X0287244Y040437D02*
Y0455157D01*
X027685Y0453149D02*
X0278503Y0451496D01*
X0285629Y0456771D02*
X0287244Y0455157D01*
X0285629Y0456771D02*
Y0473228D01*
X027685Y0453149D02*
Y047685D01*
X0296023Y0400748D02*
Y0458779D01*
X0278503Y0407992D02*
Y0451496D01*
X0691338Y0444055D02*
X0741535D01*
X0774015Y0476496*
X0681299Y0454094D02*
X0691338Y0444055D01*
X0762519Y050748D02*
Y0761496D01*
X0293503Y0515984D02*
Y0522992D01*
X0287244Y0509763D02*
X0293503Y0515984D01*
X0287244Y0474842D02*
Y0509763D01*
X0290984Y0525511D02*
X0293503Y0522992D01*
X0741496Y0247598D02*
Y0350984D01*
X0777519Y0387007*
X0295511Y0400236D02*
X0296023Y0400748D01*
X0295511Y0355D02*
Y0400236D01*
X0794094Y081D02*
X0796338D01*
Y0882007*
X0834803Y0823582D02*
X0840511D01*
X082122Y081D02*
X0834803Y0823582D01*
X0796338Y081D02*
X082122D01*
X027685Y047685D02*
X0278503Y0478503D01*
Y0515984*
X0285629Y0473228D02*
X0287244Y0474842D01*
X0277519Y0517007D02*
X0278503Y0515984D01*
X078996Y0265551D02*
X0810511Y0245D01*
X0285511Y0402598D02*
X0287244Y040437D01*
X0285511Y04D02*
Y0402598D01*
X0267992Y0382519D02*
X0285511Y04D01*
X0267992Y0357519D02*
Y0382519D01*
X0265511Y0355D02*
X0267992Y0357519D01*
X0780511Y0307125D02*
X0795866Y0322519D01*
X0780511Y0297007D02*
Y0307125D01*
X0795866Y0322519D02*
X0864291D01*
X0816023Y0356889D02*
X0826299Y0346614D01*
X085559Y0364488D02*
X0906299D01*
X0826299Y0346614D02*
X0832007D01*
X0837716D02*
X085559Y0364488D01*
X0824803Y0480078D02*
X0830511D01*
X0816023Y0471299D02*
X0824803Y0480078D01*
X0897007Y0416614D02*
X0901614Y0412007D01*
X0937007Y0349094D02*
Y0407401D01*
X093248Y047811D02*
Y0529881D01*
X0832007Y0346614D02*
X0837716D01*
X0927874Y0534488D02*
X093248Y0529881D01*
X0899015Y0534488D02*
X0927874D01*
X0897007Y0476496D02*
X09Y0473503D01*
X0927874*
X093248Y047811*
X0893307Y0540196D02*
X0899015Y0534488D01*
X0830511Y0480078D02*
X083622D01*
X0865984Y0527519D02*
X0897007Y0496496D01*
X0860511Y0532992D02*
X0865984Y0527519D01*
X0893307Y0540196D02*
Y0575511D01*
X0257874Y0387401D02*
X0278503Y0407992D01*
X0255511Y0355D02*
Y0357401D01*
X0257874Y0359763*
Y0387401*
X0173503Y018748D02*
X0370511D01*
X0115511Y0129488D02*
X0173503Y018748D01*
X0351496Y0210511D02*
X0447992Y0307007D01*
X0191496Y0210511D02*
X0351496D01*
X0412874Y0435D02*
X041748Y0430393D01*
Y0317992D02*
Y0430393D01*
X0332992Y0233503D02*
X041748Y0317992D01*
X0365511Y0435D02*
X0412874D01*
X0162519Y0537401D02*
X0178661D01*
X0142125Y0517007D02*
X0162519Y0537401D01*
X0400511Y0467519D02*
Y0525984D01*
X0922874Y0970511D02*
X0927519Y0965905D01*
X0867598Y0970511D02*
X0922874D01*
X0927519Y0906614D02*
Y0965905D01*
X0862992Y0940275D02*
X0866496Y0936771D01*
X0862992Y0940275D02*
Y0965905D01*
X0922874Y0902007D02*
X0927519Y0906614D01*
X0891102Y0894606D02*
X0898503Y0902007D01*
X0922874*
X0884015Y0893228D02*
X0885393Y0894606D01*
X0862992Y0965905D02*
X0867598Y0970511D01*
X0743622Y0941299D02*
X0782007D01*
X0739015Y0936692D02*
X0743622Y0941299D01*
X0739015Y0915629D02*
Y0936692D01*
X0782007Y0896338D02*
Y0941299D01*
X073437Y0910984D02*
X0739015Y0915629D01*
X0782007Y0896338D02*
X0796338Y0882007D01*
X0686653Y0924803D02*
X0700472Y0910984D01*
X073437*
X0884015Y0860984D02*
X0907007Y0837992D01*
X089811Y0829133D02*
X0907007Y0837992D01*
X0885393Y0894606D02*
X0891102D01*
X0884015Y0860984D02*
Y0887519D01*
X089811Y0721889D02*
X0902519Y071748D01*
X0893307Y0708267D02*
X0902519Y071748D01*
X0892559Y0823582D02*
X089811Y0829133D01*
Y0721889D02*
Y0829133D01*
X0884015Y0887519D02*
Y0893228D01*
X0840511Y0823582D02*
X0892559D01*
X0883149Y0698149D02*
X0893307Y0708267D01*
X0686653Y0909527D02*
Y0924803D01*
X068496Y0907834D02*
X0686653Y0909527D01*
X0596653Y0926299D02*
X0611377Y0911614D01*
X0561377Y0903464D02*
X0601102D01*
X068496Y0886377D02*
Y0907834D01*
X0611377Y0893228D02*
Y0911614D01*
X0542913Y0885D02*
X0561377Y0903464D01*
X0601102D02*
X0611377Y0893228D01*
X0498503Y0929015D02*
X05D01*
X0427007Y0915984D02*
X0485511D01*
X04137Y0929291D02*
X041811Y0924881D01*
X0427007Y0915984*
X05Y0929015D02*
X0518937Y0910078D01*
X0485511Y0915984D02*
X0498503Y0929015D01*
X0518937Y0885D02*
Y0910078D01*
X041811Y0886811D02*
Y0924881D01*
X0683582Y0885D02*
X068496Y0886377D01*
X0655Y0885D02*
X0683582D01*
X0626653Y0866496D02*
X0636496D01*
X0661811D02*
X0692992Y0835314D01*
X0636496Y0866496D02*
X0661811D01*
X0636496D02*
X0655Y0885D01*
X0611377Y0881811D02*
Y0887519D01*
X0518937Y0885D02*
X0542913D01*
X0611377Y0881811D02*
X0626653Y0866496D01*
X041811Y0886811D02*
X0418425Y0886496D01*
X0590511Y0827598D02*
Y0861496D01*
X0587992Y0864015D02*
X0590511Y0861496D01*
X0893307Y0595511D02*
Y0708267D01*
X0865118Y0595511D02*
X0893307D01*
X0839015Y0698149D02*
X0883149D01*
X0839015Y0657362D02*
Y0698149D01*
X0860511Y0590905D02*
X0865118Y0595511D01*
X0852637Y0496496D02*
X0897007D01*
X0860511Y0532992D02*
Y0590905D01*
X0797992Y0616377D02*
X0839015Y0657362D01*
X0802598Y0577637D02*
X0829015D01*
X0797992Y0582244D02*
Y0616377D01*
Y0582244D02*
X0802598Y0577637D01*
X083622Y0480078D02*
X0852637Y0496496D01*
X0691417Y0478346D02*
X0693464Y0480354D01*
X0691338Y0478346D02*
X0691417D01*
X0681299Y0454094D02*
Y0468307D01*
X0737677Y0096574D02*
X0739055Y0095196D01*
X0719566Y0109015D02*
X0731968Y0096574D01*
X0737677*
X0681299Y0468307D02*
X0691338Y0478346D01*
X062748Y010437D02*
X0632125Y0109015D01*
X0719566*
X0418582Y0113385D02*
X0423188Y0117992D01*
X0462125*
X062748Y0080984D02*
Y010437D01*
X0462125Y0117992D02*
X0487637Y0092519D01*
X0418582Y0089488D02*
Y0113385D01*
X0739055Y0083779D02*
Y0089488D01*
Y0095196*
Y0083779D02*
X0765Y0057874D01*
X0620984Y0049015D02*
X062748Y0042519D01*
X0765Y0027007D02*
Y0057874D01*
X062748Y0042519D02*
Y0080984D01*
Y0042519D02*
X0644488Y0025511D01*
X0525078Y0052913D02*
Y0092519D01*
X0487637D02*
X0525078D01*
X057748Y0049015D02*
X0620984D01*
X0418582Y0056653D02*
Y0089488D01*
X0417716Y005748D02*
X0439015Y003622D01*
X0557007Y0028503D02*
X057748Y0049015D01*
X0549488Y0028503D02*
X0557007D01*
X0525078Y0052913D02*
X0549488Y0028503D01*
X0369448Y0929291D02*
X0406653D01*
X04137*
X0298464Y0937992D02*
X0307165Y0929291D01*
X0208346Y0937992D02*
X0298464D01*
X0360787Y0920629D02*
X0369448Y0929291D01*
X0307165D02*
X0315826Y0920629D01*
X0360787*
X0199645Y0929291D02*
X0218425Y0910511D01*
X0307165Y0910984D02*
Y0929291D01*
X0190984Y0937992D02*
X0199645Y0929291D01*
X0125826Y0937992D02*
X0190984D01*
X0199645Y0929291D02*
X0208346Y0937992D01*
X0117165Y0929291D02*
X0125826Y0937992D01*
X0080196Y0929291D02*
X0117165D01*
X0182992Y0912637D02*
X0199645Y0929291D01*
X0182992Y0851102D02*
Y0912637D01*
X0117165Y0895157D02*
Y0929291D01*
X0307165Y0910984D02*
X0324921Y0893228D01*
X0218425Y0889015D02*
Y0910511D01*
X0324921Y0887519D02*
Y0893228D01*
X0118385Y0884685D02*
X0122992Y0889291D01*
X0188976Y0845118D02*
X0222007D01*
X0182992Y0851102D02*
X0188976Y0845118D01*
X0117165Y0895157D02*
X0122992Y0889291D01*
X009307Y085996D02*
X0117795Y0884685D01*
X0118385*
X009307Y0856299D02*
Y085996D01*
X0091692Y0854921D02*
X009307Y0856299D01*
X0101968Y0790196D02*
Y0844685D01*
X0091692Y0854921D02*
X0101968Y0844685D01*
X0091692Y0779921D02*
X0101968Y0790196D01*
X0062007Y094748D02*
X0080196Y0929291D01*
X0057874Y0889488D02*
X0062519Y0884881D01*
X0043188Y0894173D02*
X0047874Y0889488D01*
X0057874*
X0085984Y0854921D02*
X0091692D01*
X0050944Y0779921D02*
X0085984D01*
X0091692*
X0062519Y0849094D02*
Y0884881D01*
X0057874Y0844488D02*
X0062519Y0849094D01*
X0043188Y0909015D02*
Y09287D01*
X0062007Y094748*
X0043188Y0894173D02*
Y0909015D01*
X0033503Y0845D02*
X0034015Y0844488D01*
X0035Y0764015D02*
X0050944Y0779921D01*
X0034015Y0844488D02*
X0057874D01*
X001Y0739015D02*
X0035Y0764015D01*
X001Y0702125D02*
Y0739015D01*
X0079291Y0709448D02*
X0085D01*
X0069055Y0679251D02*
X0085Y0663307D01*
X0069055Y0699173D02*
X0079291Y0709448D01*
X0069055Y0679251D02*
Y0699173D01*
X0085Y0642007D02*
Y0663307D01*
X0050944Y0642007D02*
X0085D01*
X0046929Y0549448D02*
X0081496D01*
X004437Y0709448D02*
X0079291D01*
X0033937Y0699015D02*
X004437Y0709448D01*
X001Y0702125D02*
X0014606Y069748D01*
X003244*
X0034921Y0625984D02*
X0040669Y0620236D01*
X0034921Y0625984D02*
X0050944Y0642007D01*
X0040669Y0543188D02*
Y0620236D01*
X003244Y069748D02*
X0033937Y0699015D01*
X0190905Y0315D02*
X0195511Y0319606D01*
Y0345*
X0170984Y0315D02*
X0190905D01*
X0204094Y0127007D02*
X023059D01*
X0262598Y0095*
X0199488Y0122401D02*
X0204094Y0127007D01*
X0199488Y0097992D02*
Y0122401D01*
X015437Y0298385D02*
X0170984Y0315D01*
X0146732Y0299488D02*
X0147834Y0298385D01*
X015437*
X0094251Y0404488D02*
X0113503Y042374D01*
X0087007Y0299488D02*
X0146732D01*
X014Y0219015D02*
X0165984D01*
X0087992Y0167007D02*
X014Y0219015D01*
X0301062Y0056653D02*
Y0095D01*
X0348779Y005748D02*
X0417716D01*
X0262598Y0095D02*
X0301062D01*
X0220984Y0054015D02*
Y0070787D01*
X0324488Y0033228D02*
X0348779Y005748D01*
X0301062Y0056653D02*
X0324488Y0033228D01*
X0220984Y0035511D02*
Y0054015D01*
X0199488Y0092283D02*
X0220984Y0070787D01*
X0159488Y0075D02*
X02D01*
X011059Y0110984D02*
X0121496Y0100078D01*
X0199488Y0092283D02*
Y0097992D01*
X02Y0075D02*
X0220984Y0054015D01*
X0121496Y0037007D02*
X0159488Y0075D01*
X0121496Y0037007D02*
Y0100078D01*
X0087519Y0070984D02*
X0121496Y0037007D01*
X0108897Y0440433D02*
X0113503Y0435826D01*
X0085984Y0440433D02*
X0108897D01*
X0113503Y042374D02*
Y0435826D01*
X0040669Y0543188D02*
X0046929Y0549448D01*
X0080275Y0440433D02*
X0085984D01*
X0092992Y0404488D02*
X0094251D01*
X0060866Y0420984D02*
X0080275Y0440433D01*
X0032007Y0534488D02*
X0040669Y0543188D01*
X0007007Y0466496D02*
X0032007Y0491496D01*
Y0534488*
X0007007Y042811D02*
Y0466496D01*
X0029488Y0423503D02*
X0032007Y0420984D01*
X0060866*
X0007007Y042811D02*
X0011614Y0423503D01*
X0029488*
X011Y0110984D02*
X011059D01*
X0087519Y0070984D02*
Y0104015D01*
X0087007Y0299488D02*
Y0345984D01*
X01Y0359015*
X0080551Y0299488D02*
X0087007D01*
X0067755Y0295511D02*
X0076535D01*
X0080551Y0299488*
X0080511Y0159488D02*
X0087992Y0167007D01*
X0072244Y0159488D02*
X0080511D01*
X0016023Y0270511D02*
D01*
X0013503Y0273031D02*
X0016023Y0270511D01*
X0004763Y0267362D02*
X0005511Y0266614D01*
X0004763Y0267362D02*
Y0301141D01*
X0005511Y0265511D02*
Y0266614D01*
X0004763Y0301141D02*
X0005511Y0301889D01*
X000496Y0304251D02*
Y0372362D01*
Y0304251D02*
X0005511Y03037D01*
Y0265511D02*
X0022007Y0249015D01*
X000496Y0372362D02*
X0010118Y0377519D01*
X0084488*
X0044488Y0320984D02*
X0132992Y0409488D01*
X0030511Y0320984D02*
X0044488D01*
X0025748Y0316259D02*
X0030511Y0320984D01*
X0025748Y0315826D02*
Y0316259D01*
X002311Y0313149D02*
X0025748Y0315826D01*
X0142125Y0435118D02*
Y0517007D01*
X0084488Y0377519D02*
X0142125Y0435118D01*
X0022007Y0249015D02*
X0055078D01*
X0063188Y0257125*
Y026248*
X0020984Y0330511D02*
Y0343503D01*
X0022519Y0345*
X0245511Y0516496D02*
X0247007Y0517992D01*
X0245511Y0355D02*
Y0516496D01*
X0074015Y0305511D02*
X0077007Y0308503D01*
X0067755Y0305511D02*
X0074015D01*
X0178661Y0357401D02*
X0183858Y0362598D01*
X0218661*
X0202007Y0377007D02*
X0216811D01*
X023437Y0359448*
Y0356141D02*
Y0359448D01*
Y0356141D02*
X0235511Y0355D01*
X0067755Y0270511D02*
X0070236Y0272992D01*
X0082992*
X0088503Y026748*
X0147874*
X0152519Y0272125*
Y0289488*
X0218661Y0362598D02*
X0225511Y0355748D01*
Y0355D02*
Y0355748D01*
X0080511Y0203307D02*
X008559Y0208385D01*
X0080511Y0177755D02*
Y0203307D01*
X008559Y0208385D02*
X0094015D01*
X0072244Y0169488D02*
X0080511Y0177755D01*
X0205984Y0172007D02*
X0209488Y0168503D01*
X0375511*
X0030078Y0177165D02*
X0086889Y0234015D01*
X0022992Y0187007D02*
Y021248D01*
X0016377Y0180393D02*
X0022992Y0187007D01*
X0385Y0326496D02*
Y0410393D01*
X0397992Y0342007D02*
Y0415551D01*
X0105Y0165984D02*
X0136496Y0197519D01*
X0086889Y0234015D02*
X0175393D01*
X018Y022937*
X0072244Y0134488D02*
X010374Y0165984D01*
X0105*
X0307007Y0274015D02*
X0311496Y0278503D01*
X0337007*
X0385Y0326496*
X0380393Y0415D02*
X0385Y0410393D01*
X0365511Y0415D02*
X0380393D01*
X0093858Y012685D02*
X0096496Y0129488D01*
X0067716Y0126496D02*
X0068582Y0125629D01*
X0071141Y0125511D02*
X0078503D01*
X008D02*
X0093582D01*
X0200511Y0233503D02*
X0332992D01*
X0365511Y0425D02*
X0388543D01*
X0397992Y0415551*
X0015Y0134488D02*
X0020748D01*
X0006496Y0125984D02*
X0015Y0134488D01*
X0365511Y0590984D02*
X0367874Y0593385D01*
X0368661*
X0374251Y0599015*
X0184606Y0210118D02*
X0191141D01*
X0191496Y0210511*
X018Y0214763D02*
X0184606Y0210118D01*
X018Y0214763D02*
Y022937D01*
X0016377Y0172952D02*
Y0180393D01*
Y0172952D02*
X0020314Y0169055D01*
X0932401Y0344488D02*
X0937007Y0349094D01*
X0893307Y0575511D02*
X0924881D01*
X0929488Y0580118*
Y0670511*
X0902519Y069748D02*
X0929488Y0670511D01*
X0902519Y069748D02*
X0931377D01*
X0935984Y0702125*
Y0789015*
X0714803Y08237D02*
X0716496Y0822007D01*
X0692992Y08237D02*
X0714803D01*
X0909015Y0815984D02*
X0942992D01*
X0863149Y085185D02*
X0865Y085D01*
X0863149Y085185D02*
Y0887519D01*
Y0893228*
X0886496Y0916574*
Y0936771*
X0877637Y0927913D02*
X0886496Y0936771D01*
X0815354Y0927913D02*
X0877637D01*
X0802007Y0941299D02*
X0815354Y0927913D01*
X0590511Y0881811D02*
X0648582Y08237D01*
X0590511Y0881811D02*
Y0887519D01*
X0459488Y0885D02*
X049807D01*
X0445039Y0870551D02*
X0459488Y0885D01*
X0648582Y08237D02*
X0692992D01*
X0557952Y0887519D02*
X0590511D01*
X0539488Y0869055D02*
X0557952Y0887519D01*
X0508307Y0869055D02*
X0539488D01*
X049807Y0879291D02*
X0508307Y0869055D01*
X049807Y0879291D02*
Y0885D01*
X0407834Y0870551D02*
X0445039D01*
X0397559Y0880787D02*
X0407834Y0870551D01*
X0397559Y0880787D02*
Y0886496D01*
X0197559Y0883307D02*
Y0889015D01*
X0222007Y0810866D02*
X0250748D01*
X0257007Y0817125*
Y085748*
X0254488Y086D02*
X0257007Y085748D01*
X0251496Y0862992D02*
X0254488Y086D01*
X0202165Y0862992D02*
X0251496D01*
X0197559Y0867598D02*
X0202165Y0862992D01*
X0197559Y0867598D02*
Y0883307D01*
X0248031Y0873031D02*
X026248Y0887519D01*
X0304055*
X0362716Y0886496D02*
X0397559D01*
X0347755Y0871535D02*
X0362716Y0886496D01*
X031433Y0871535D02*
X0347755D01*
X0304055Y0881811D02*
X031433Y0871535D01*
X0304055Y0881811D02*
Y0887519D01*
X0207834Y0873031D02*
X0248031D01*
X0197559Y0883307D02*
X0207834Y0873031D01*
G54D20*
X0005511Y0301889D02*
Y03037D01*
G54D21*
X0866496Y0936771D03*
X0782007Y0941299D03*
X0907007Y0837992D03*
X0902519Y071748D03*
X0893307Y0595511D03*
X0897007Y0496496D03*
X0906299Y0364488D03*
X0897007Y0476496D03*
X0906299Y0344488D03*
X0802007Y0941299D03*
X0886496Y0936771D03*
X0907007Y0817992D03*
X0902519Y069748D03*
X0893307Y0575511D03*
G54D22*
X0796338Y0882007D03*
G54D23*
X0686653Y0924803D03*
X0596653Y0926299D03*
X05Y0929015D03*
X0765Y0027007D03*
X0644488Y0025511D03*
X0549488Y0028503D03*
X0439015Y003622D03*
X0406653Y0929291D03*
X0307165D03*
X0199645D03*
X0117165D03*
X0062007Y094748D03*
X0033503Y0845D03*
X0035Y0764015D03*
X0033937Y0699015D03*
X0034921Y0625984D03*
X0324488Y0033228D03*
X0220984Y0035511D03*
X0121496Y0037007D03*
X0032007Y0534488D03*
Y0420984D03*
X0101496Y0037007D03*
X0200984Y0035511D03*
X0304488Y0033228D03*
X0419015Y003622D03*
X0529488Y0028503D03*
X0624488Y0025511D03*
X0745Y0027007D03*
X0616653Y0926299D03*
X0219645Y0929291D03*
X0137165D03*
X0327165D03*
X0426653D03*
X052Y0929015D03*
X0706653Y0924803D03*
X0032007Y0440984D03*
X0042007Y094748D03*
X0033503Y0865D03*
X0035Y0784015D03*
X0032007Y0554488D03*
X0033937Y0719015D03*
X0034921Y0645984D03*
G54D24*
X0693464Y0480354D03*
Y0660354D03*
Y0650354D03*
Y0640354D03*
Y0630354D03*
Y0620354D03*
X0703464Y0670354D03*
Y0660354D03*
Y0650354D03*
Y0640354D03*
Y0630354D03*
Y0620354D03*
X0693464Y0610354D03*
X0703464D03*
X0693464Y0600354D03*
Y0590354D03*
Y0580354D03*
Y0570354D03*
Y0560354D03*
Y0550354D03*
X0703464Y0600354D03*
Y0590354D03*
Y0580354D03*
Y0570354D03*
Y0560354D03*
Y0550354D03*
X0693464Y0540354D03*
X0703464D03*
X0693464Y0530354D03*
Y0520354D03*
Y0510354D03*
Y0500354D03*
Y0490354D03*
X0703464Y0530354D03*
Y0520354D03*
Y0510354D03*
Y0500354D03*
Y0490354D03*
Y0480354D03*
G54D25*
X0195511Y0345D03*
X0295511Y0355D03*
X0305511D03*
X0365511Y0535D03*
X0265511Y0355D03*
X0325511D03*
X0365511Y0545D03*
X0175511Y0605D03*
Y0595D03*
Y0585D03*
Y0575D03*
Y0565D03*
Y0555D03*
Y0545D03*
Y0525D03*
Y0515D03*
Y0505D03*
Y0495D03*
Y0485D03*
Y0475D03*
Y0465D03*
Y0455D03*
Y0435D03*
Y0425D03*
Y0415D03*
Y0405D03*
Y0395D03*
Y0385D03*
Y0375D03*
Y0365D03*
X0195511Y0355D03*
X0205511Y0345D03*
Y0355D03*
X0215511Y0345D03*
Y0355D03*
X0225511Y0345D03*
Y0355D03*
X0235511D03*
Y0345D03*
X0245511Y0355D03*
Y0345D03*
X0255511Y0355D03*
Y0345D03*
X0265511D03*
X0275511Y0355D03*
Y0345D03*
X0285511Y0355D03*
Y0345D03*
X0295511D03*
X0305511D03*
X0315511Y0355D03*
Y0345D03*
X0325511D03*
X0335511Y0355D03*
Y0345D03*
X0345511Y0355D03*
Y0345D03*
X0355511Y0355D03*
Y0345D03*
X0365511Y0355D03*
Y0345D03*
Y0385D03*
Y0395D03*
Y0405D03*
Y0415D03*
Y0425D03*
Y0435D03*
Y0445D03*
Y0455D03*
Y0475D03*
Y0485D03*
Y0495D03*
Y0505D03*
Y0515D03*
Y0525D03*
Y0560984D03*
Y0570984D03*
Y0580984D03*
Y0590984D03*
Y0600984D03*
Y0610984D03*
Y0620984D03*
Y0630984D03*
Y0640984D03*
Y0650984D03*
G54D26*
X0505551Y0689527D03*
Y0461181D03*
X0698464D03*
Y0689527D03*
G54D27*
X0693464Y0670354D03*
G54D28*
X0175511Y0615D03*
G54D29*
X0175511Y067D03*
X0195511Y0465D03*
X0305511D03*
X0365511Y0665D03*
X0175511Y0345D03*
X0365511Y037D03*
G54D30*
X0776653Y0882007D03*
G54D31*
X0924015Y0067992D03*
X0857992Y0144015D03*
X0926692Y0227204D03*
X0922519Y0249015D03*
X0852992Y0272007D03*
X0852007Y0244015D03*
X0835Y0104488D03*
X0785Y0152992D03*
X0220984Y0617519D03*
X0219488Y0512992D03*
X0892992Y019D03*
X0772007Y0429015D03*
X0221496Y0413503D03*
X0152992Y0355511D03*
X0347992Y0490984D03*
X0332007Y0491496D03*
X0352992Y0505D03*
X0897007Y0047007D03*
X0707007Y021D03*
X0655Y0524015D03*
X0344251Y0525D03*
X0932992Y0125511D03*
X0761496Y0254488D03*
X0719685Y0419685D03*
X0736496Y0481496D03*
X0777519Y0387007D03*
X0762519Y0761496D03*
X0306496Y0520511D03*
X0277519Y0517007D03*
X0810511Y0245D03*
X0804015Y0462992D03*
X0290984Y0525511D03*
X0796496Y030248D03*
X0435984Y0214488D03*
X0400511Y0467519D03*
X0636496Y0866496D03*
X0587992Y0864015D03*
X0165984Y0219015D03*
X0092992Y0404488D03*
X01Y0359015D03*
X0087007Y0299488D03*
X0087992Y0167007D03*
X0087519Y0104015D03*
X0013503Y0297519D03*
X0022519Y0345D03*
X0247007Y0517992D03*
X0202007Y0377007D03*
X0077007Y0308503D03*
X0152519Y0289488D03*
X0097007Y0207992D03*
X0205984Y0172007D03*
X0375511Y0168503D03*
X0022992Y021248D03*
X0132992Y0409488D03*
X0136496Y0197519D03*
X0307007Y0274015D03*
X0200511Y0233503D03*
X0006496Y0125984D03*
X0397992Y0342007D03*
X0716496Y0822007D03*
X0942992Y0815984D03*
X0865Y085D03*
M02*