%FSTAX25Y25*%
%MOIN*%
%SFA1B1*%

%IPPOS*%
%ADD34C,0.007874*%
%ADD61C,0.005000*%
G54D61*
X0048196Y0908746D02*
X0048164Y0908726D01*
X0048307*
X0048346*
X0048282*
X0048321Y0908687*
X0048405*
X0048484Y0908647*
X0048479*
X0048445Y0908681*
X0048484Y0908642*
X0048524Y0908602*
X0048636Y090849*
X0048529*
Y09087*
Y0908411*
X0048568*
Y0908563*
X0048608Y0908484*
Y0908444*
X0048674Y0908313*
X0048687Y0908287*
Y0908208*
X0048726Y0908129*
Y090807*
Y0907912*
X0048765Y0907794*
Y0907716*
Y0907677*
Y0907637*
Y0907598*
Y0907662*
X0048726Y0907623*
Y090744*
Y0907362*
Y0907245*
X0048687Y0907127*
Y090715*
X0048647Y0907111*
Y0906968*
Y0907032*
X0048608Y0906993*
Y0906909*
X0048613Y0906919*
X0048563Y0906869*
X0048524Y090683*
X0048372Y0906678*
Y0906785*
X0048523*
X0048392Y0906719*
X0048366Y0906706*
X0048345*
X0048227Y0906667*
X0048188*
X0048149*
X0048213*
X0048174Y0906706*
X0047992*
X0048011*
X0047933Y0906746*
X0047938*
X0047898Y0906785*
X0047859*
X0047893Y0906751*
X0047853Y090679*
X0047814Y090683*
X0047775Y0906869*
X0047809Y0906835*
Y0906875*
X0047769Y0906914*
Y0906953*
X0047685Y0907037*
X004769Y0907027*
Y0907106*
X0047651Y0907185*
Y0907165*
Y0907204*
Y0907244*
Y0907387*
X0047612Y0907426*
Y0907362*
Y0907401*
Y090748*
Y0907519*
Y0907598*
Y0907637*
Y0907716*
Y0907755*
Y0907795*
Y0907834*
Y0907874*
Y0907913*
Y0907952*
Y090803*
X0047651Y0908148*
Y0908248*
X004769Y0908326*
Y0908425*
Y0908214*
X004773*
Y0908503*
Y0908439*
X0047725Y0908434*
X0047782Y0908549*
X0047803Y0908592*
X0047814Y0908602*
X004782Y0908608*
X0048005*
Y0908647*
X0047898*
X0047938Y0908687*
X0047972*
X0048051Y0908726*
X0048111*
X0048229Y0908765*
X0048196Y0908746*
X00478Y09069D02*
Y09085D01*
X00483Y09068D02*
Y09086D01*
X0409159Y088719D02*
X0409513D01*
Y0887375*
X0409159*
Y0886785*
X0409344*
Y0887375*
X0408242*
Y0887359*
X04093Y0888805*
X0409159*
Y088719*
X04084Y08875D02*
Y08876D01*
X04089Y08875D02*
Y08882D01*
X04094Y08873D02*
D01*
X0221102Y0835301D02*
X0221141D01*
X0221181*
X0221161*
X022124Y0835261*
X0221358*
X0221384Y0835248*
X0221515Y0835183*
X022151*
X0221476Y0835216*
X0221516Y0835177*
X0221555Y0835138*
X0221594Y0835098*
X0221673Y083502*
X0221639Y0835053*
Y0835014*
X0221679Y0834975*
Y0834896*
X0221718Y0834857*
Y0834822*
X0221757Y0834744*
Y0834685*
Y0834645*
Y0834709*
X0221718Y083467*
Y0834527*
Y0834528*
X0221679Y083441*
Y0834434*
X0221684Y0834439*
X02216Y0834271*
Y0834276*
X0221634Y083431*
X0221668Y0834344*
X0221482*
Y0834305*
X0221442*
Y0834265*
X0221549*
X022151Y0834226*
X0221471*
X0221431Y0834187*
X0221353*
X0221313Y0834147*
X0221279*
X02212Y0834108*
X022122*
X0221141*
X0221023*
X0220984*
X0220944*
X0220905*
X0220866*
X0220885*
X0220807Y0834147*
X0220708*
X0220733*
X0220738Y0834142*
X022057Y0834226*
X0220531*
X022058Y0834202*
X0220523Y083426*
X0220525Y0834258*
Y0834423*
X0220486*
Y0834316*
X0220446Y0834355*
Y0834394*
X0220407Y0834434*
Y0834429*
X0220349Y0834544*
X0220328Y0834607*
Y0834645*
Y0834685*
Y0834724*
Y0834763*
Y0834699*
X0220368Y0834738*
Y0834881*
Y0834862*
X0220407Y083494*
Y0834975*
X0220373Y0834941*
X0220441Y0835009*
X0220525Y0835177*
Y0835121*
X0220604Y083516*
Y0835104*
X0220497*
X0220609Y0835216*
X0220575Y0835183*
X0220615*
X0220654Y0835222*
X0220733*
X0220772Y0835261*
X0220851*
X022089Y0835301*
X0220866*
X0220944*
X0221023*
X0221062*
X0221102*
X02206Y08343D02*
X02215D01*
X02205Y08348D02*
X02216D01*
X0220826Y0833293D02*
X0220866D01*
X0220905*
X0220984*
X0221061*
X0221179Y0833253*
X0221338*
X0221274*
X0221313Y0833214*
X0221353*
X0221392Y0833175*
X0221431*
X0221426Y083318*
X0221541Y0833122*
X022162Y0833083*
X0221647Y0833047*
X0221639Y0833056*
Y0833006*
X0221723Y0832922*
X0221718Y0832933*
Y0832854*
X0221757Y0832775*
Y0832755*
Y0832716*
Y0832677*
Y0832741*
X0221718Y0832701*
Y0832559*
Y0832519*
Y0832583*
X0221679Y0832544*
Y083246*
X0221673Y083246*
X0221634Y083242*
X0221594Y0832381*
X0221555Y0832342*
X0221516Y0832302*
X0221549Y0832336*
X0221555*
X0221476Y0832297*
X0221437*
X0221358Y0832257*
X0221279*
X02212Y0832218*
X022114*
X0221022Y0832179*
X0220944*
X0220826*
X0220708*
X0220669*
X0220629*
X022059*
X0220551*
X0220511*
X0220472*
X0220394*
X0220276Y0832218*
X0220177*
X0220098Y0832257*
X022*
X0220064*
X0220024Y0832297*
X0219985*
X021999Y0832292*
X0219875Y0832349*
X0219833Y083237*
X0219822Y0832381*
X0219816Y0832387*
Y0832572*
X0219777*
Y0832465*
X0219738Y0832505*
Y0832539*
X0219698Y0832618*
Y0832678*
X0219695Y0832688*
X0219698Y0832691*
Y0832874*
Y0832913*
Y0832893*
X0219711Y0832919*
X0219777Y0833051*
Y0833046*
X0219743Y0833012*
X0219783Y0833051*
X0219822Y083309*
X0219833Y0833101*
X0219911Y083314*
X0219906Y0833135*
X0219901*
X0220069Y0833219*
X0220064Y0833214*
X0220098*
X0220177Y0833253*
X0220157*
X02203*
X0220339Y0833293*
X0220275*
X0220314*
X0220354*
X0220393*
X0220472*
X0220511*
X022059*
X0220629*
X0220708*
X0220748*
X0220787*
X0220826*
X02199Y08324D02*
X02215D01*
X02198Y08329D02*
X02216D01*
X0220826Y0831364D02*
X0220866D01*
X0220846*
X0220925Y0831324*
X0221102*
X0221179*
X0221298Y0831285*
X0221274*
X0221313Y0831246*
X0221456*
X0221392*
X0221431Y0831206*
X0221515*
X0221505Y0831211*
X0221584Y0831133*
X0221624Y0831112*
X0221737Y0831041*
X0221639Y0831087*
Y0831122*
X0221723Y0830954*
X0221718Y0830959*
Y0830943*
X0221757Y0830825*
Y0830787*
Y0830748*
Y0830812*
X0221718Y0830772*
Y0830629*
Y0830551*
Y0830615*
X0221679Y0830575*
Y0830536*
X0221712Y083057*
X0221644Y0830502*
X0221605Y0830423*
X0221594Y0830412*
X0221628Y0830446*
X0221442*
Y0830407*
X0221549*
X022151Y0830368*
X0221431*
X0221392Y0830328*
X0221358*
X0221226Y0830262*
X02212Y083025*
X022114*
X0221022Y083021*
X0220944*
X0220826*
X0220708*
X0220669*
X0220629*
X022059*
X0220551*
X0220511*
X0220472*
X0220394*
X0220315Y0830237*
X0220158Y0830289*
X0220039*
X0220103*
X0220064Y0830328*
X0219921*
X0219985*
X021999Y0830323*
X0219875Y0830381*
X0219816Y083044*
X0219816Y0830439*
Y0830604*
X0219777*
Y0830497*
X0219738Y0830536*
Y083057*
X0219698Y0830649*
Y0830709*
X0219659Y0830827*
X0219642Y0830758*
X0219698Y0830989*
Y0830905*
Y0830944*
Y083092*
X0219693Y0830914*
X0219777Y0831082*
Y0831077*
X0219743Y0831043*
X0219783Y0831083*
X0219822Y0831122*
X0219833Y0831133*
X0220013Y0831223*
Y0831167*
X0219906*
X0219946Y0831206*
X0220024*
X0220108Y083129*
X0220098Y0831285*
X0220118*
X0220407*
Y0831324*
X0220196*
X0220236*
X0220275*
X0220314*
X0220354*
X0220452*
X0220531Y0831364*
X0220511*
X022059*
X0220629*
X0220708*
X0220748*
X0220787*
X0220826*
X02199Y08304D02*
X02215D01*
X02198Y08309D02*
X02216D01*
X0691811Y0830891D02*
X0691889D01*
X0691929*
X0691968*
X0692046*
X0692164Y0830852*
X0692219*
X0692258Y0830812*
X069219*
Y0830773*
X069248*
X069246*
X0692493Y0830747*
X069256Y0830707*
X0692647Y0830621*
X0692624Y0830632*
Y0830748*
Y0830458*
X0692663*
Y083061*
X0692729Y0830478*
X0692742Y0830452*
Y0830433*
Y0830314*
Y0830275*
Y0830236*
Y0830196*
Y0830261*
X0692702Y0830221*
Y0830078*
Y0830098*
X0692663Y0830009*
X069267Y0830031*
X0692657Y0830019*
X0692618Y0829979*
X0692505Y0829867*
Y0829974*
X0692716*
X0692573*
X0692534Y0829935*
X0692494*
X069241Y0829851*
X0692421Y0829856*
X0692381*
X0692303Y0829816*
X0692242*
X0692124Y0829777*
X0692086*
X0691927*
X0691809Y0829738*
X0691732*
X0691692*
X0691653*
X0691614*
X0691574*
X0691599*
X069156Y0829777*
X0691338*
X0691261*
X0691142Y0829816*
X0691122*
X0691043Y0829856*
X0691048*
X0691009Y0829895*
X069093*
X0690935Y082989*
X0690856Y0829929*
X0690835Y0829951*
X0690745Y0830131*
X0690801*
Y0830171*
X0690761*
Y0830103*
X0690677Y0830187*
X0690683Y0830177*
Y0830236*
Y0830314*
Y0830354*
Y0830393*
Y0830433*
Y0830408*
X0690722Y0830447*
Y0830526*
X0690761Y0830565*
Y0830605*
X0690727Y0830571*
X0690796Y0830639*
X0690816Y0830679*
X069085Y0830704*
X0690839Y0830694*
X0690846*
X0691014Y0830778*
X0691009Y0830773*
X0691087*
X0691171Y0830857*
X0691161Y0830852*
X0691141*
X0691181*
X069122*
X0691363*
X0691402Y0830891*
X0691377*
X0691417*
X0691456*
X0691535*
X0691574*
X0691653*
X0691732*
X0691771*
X0691811*
X0691Y08299D02*
X06924D01*
X06908Y08304D02*
X06927D01*
X0602072Y0888175D02*
X0602427D01*
Y0888399*
X0602072*
Y0887809*
X0602297*
Y0888399*
X0601194*
Y0888345*
X0602216Y0889789*
X0602072*
Y0888175*
X06015Y08885D02*
Y08887D01*
X0602Y08885D02*
Y08895D01*
X0509671Y0885694D02*
X0509986D01*
Y0885879*
X0509671*
Y0885289*
X0509856*
Y0885879*
X0508753*
Y0885865*
X0509775Y0887309*
X0509671*
Y0885694*
X0509Y0886D02*
Y08861D01*
X05095Y0886D02*
Y08868D01*
X0315655Y0888175D02*
X0316009D01*
Y0888399*
X0315655*
Y0887809*
X031584*
Y0888399*
X0314738*
Y0888343*
X0315796Y0889789*
X0315655*
Y0888175*
X0315Y08885D02*
Y08887D01*
X03155Y08885D02*
Y08893D01*
X0209159Y0889671D02*
X0209513D01*
Y0889895*
X0209159*
Y0889305*
X0209344*
Y0889895*
X0208242*
Y0889841*
X0209301Y0891324*
X0209159*
Y0889671*
X02085Y089D02*
Y08902D01*
X0209Y089D02*
Y08908D01*
X087471Y0888175D02*
X0875064D01*
Y0888399*
X087471*
Y0887809*
X0874895*
Y0888399*
X0873832*
Y0888345*
X0874853Y0889789*
X087471*
Y0888175*
X08741Y08885D02*
Y08887D01*
X08746Y08885D02*
Y08893D01*
X0776167Y0810694D02*
X0776482D01*
Y0810879*
X0776167*
Y0810289*
X0776352*
Y0810879*
X077525*
Y0810865*
X0776271Y0812309*
X0776167*
Y0810694*
X07754Y0811D02*
Y08111D01*
X07759Y0811D02*
Y08117D01*
X07764Y08108D02*
D01*
X07816Y0811639D02*
X0781889D01*
X0781929*
X0781968*
X0781967*
X0782085Y08116*
X0782106*
X0782106Y0811594*
X0782146Y0811555*
X0782214Y0811487*
X078219Y0811499*
Y081151*
X0782303Y0811398*
X0782342Y0811358*
X0782309Y0811392*
Y0811397*
X0782348Y0811318*
Y0811279*
X0782387Y08112*
Y081122*
Y0811082*
X0782427Y0811003*
Y0810984*
Y0810944*
Y0811009*
X0782387Y0810969*
Y0810826*
Y0810787*
Y0810749*
X0782348Y0810631*
Y081057*
X0782309Y0810492*
Y0810643*
X0782269*
Y0810457*
X0782303Y0810491*
X0782264Y0810452*
X0782185Y0810373*
X0782174Y0810362*
X0782096Y0810323*
X0782101Y0810328*
X0782061*
X0782022Y0810289*
X0782047*
X0781909*
X078183Y081025*
X0781811*
X0781771*
X0781732*
X0781692*
X0781757*
X0781717Y0810289*
X0781633*
X0781555Y0810328*
X078152*
X0781481Y0810368*
X0781397*
X0781397Y0810373*
X0781431Y0810339*
Y0810525*
X0781391*
Y0810418*
X0781352Y0810457*
Y0810497*
X0781312Y0810536*
Y0810575*
X0781273Y0810615*
Y0810649*
X0781234Y0810728*
Y0810767*
X0781194Y0810846*
Y0810866*
Y0810944*
Y0810984*
Y0811023*
Y0811003*
X0781234Y0811082*
Y0811181*
Y0811259*
Y081124*
X0781273Y0811318*
Y0811358*
X0781299Y081139*
X0781339Y0811458*
X0781357Y0811476*
X0781397Y0811516*
X0781436Y0811555*
X0781402Y0811521*
X0781442*
X0781481Y0811561*
X078152*
X0781591Y0811631*
X0781615Y0811639*
X0781692*
X0781791*
X078187Y0811679*
X07816*
Y0811639*
X07814Y08105D02*
Y08115D01*
X07819Y08104D02*
Y08115D01*
X0779921Y0812309D02*
X077996D01*
X077994*
X0780019Y0812269*
X0780053*
X0780093Y081223*
X0779986*
Y081219*
X0780172*
X0780138Y0812224*
X0780177Y0812185*
X0780188Y0812174*
X0780278Y0811994*
X0780222*
Y0812101*
X0780306Y0812017*
X0780301Y0812027*
Y0811988*
X078034Y0811909*
Y0811786*
X0780379Y0811746*
Y0811811*
Y0811771*
Y0811732*
Y0811692*
Y0811594*
X0780419Y0811515*
Y0811535*
Y0811496*
Y0811417*
Y0811338*
Y0811299*
Y0811259*
Y081122*
Y0811181*
Y0811141*
Y0811062*
Y0811064*
X0780379Y0810946*
Y0810827*
X078034Y0810709*
Y0810629*
Y0810801*
X0780301*
Y0810511*
Y0810531*
X0780275Y0810498*
X0780235Y0810431*
X0780177Y0810373*
X0780211Y0810407*
X0780025*
Y0810368*
X0779986*
Y0810328*
X0780053*
X0780014Y0810289*
X077998*
X0779901Y081025*
X0779842*
X0779803*
X0779763*
X0779827*
X0779788Y0810289*
X0779645*
X0779665*
X0779586Y0810328*
X0779591*
X0779625Y0810294*
X0779513Y0810407*
X0779429*
X0779477Y0810383*
X0779453Y0810417*
X0779462Y0810406*
Y0810354*
Y0810497*
X0779378Y0810581*
X0779383Y081057*
Y0810694*
X0779344Y0810733*
Y0810807*
X0779305Y0810885*
Y0811003*
X0779265Y0811082*
Y0811141*
Y0811299*
Y0811338*
Y0811417*
Y0811456*
Y0811496*
Y0811494*
X0779305Y0811612*
Y0811731*
X0779344Y0811849*
Y0811968*
Y0811757*
X0779383*
Y0812047*
Y0812027*
X0779396Y0812053*
X0779418Y0812096*
X0779428Y0812106*
X0779536Y0812214*
X0779524Y081219*
X0779409*
X0779698*
Y0812325*
X0779586Y0812269*
X0779625*
X0779704Y0812309*
X0779763*
X0779842*
X0779881*
X0779921*
X07795Y08105D02*
Y08121D01*
X078Y08105D02*
Y08123D01*
X06366Y0080104D02*
X0637702D01*
Y0080158*
X0636642Y0078675*
X0636785*
Y0080328*
X0636431*
Y0080104*
X0636785*
Y0080694*
X06366*
Y0080104*
X06366Y00788D02*
Y00787D01*
Y00802D02*
Y00807D01*
X06371Y00795D02*
Y008D01*
X0534159Y00916D02*
X0535261D01*
Y0091656*
X0534203Y009021*
X0534344*
Y0091824*
X053399*
Y00916*
X0534344*
Y009219*
X0534159*
Y00916*
X05342Y00903D02*
Y00902D01*
Y00917D02*
Y00922D01*
X05347Y0091D02*
Y00915D01*
X0427663Y0088608D02*
X0428765D01*
Y0088662*
X0427705Y0087179*
X0427848*
Y0088832*
X0427494*
Y0088608*
X0427848*
Y0089198*
X0427663*
Y0088608*
X04277Y00873D02*
Y00872D01*
Y00887D02*
Y00892D01*
X04282Y0088D02*
Y00885D01*
X0310143Y009412D02*
X0311246D01*
Y0094134*
X0310224Y009269*
X0310328*
Y0094305*
X0310013*
Y009412*
X0310328*
Y009471*
X0310143*
Y009412*
X03102Y00928D02*
Y00927D01*
Y00942D02*
Y00947D01*
X03107Y00936D02*
Y0094D01*
X0208568Y0097112D02*
X0209671D01*
Y0097164*
X0208648Y0095683*
X0208793*
Y0097336*
X0208438*
Y0097112*
X0208793*
Y0097702*
X0208568*
Y0097112*
X02086Y00958D02*
Y00957D01*
Y00972D02*
Y00977D01*
X02091Y00965D02*
Y0097D01*
X0748135Y0088608D02*
X0749238D01*
Y008866*
X0748215Y0087179*
X074836*
Y0088832*
X0748005*
Y0088608*
X074836*
Y0089198*
X0748135*
Y0088608*
X07482Y00873D02*
Y00872D01*
Y00887D02*
Y00892D01*
X07487Y00881D02*
Y00885D01*
X0121811Y0884907D02*
X0121889D01*
X0121825*
X0121864Y0884868*
X0122086*
X0122164*
X0122282Y0884828*
X0122303*
X0122381Y0884789*
X012248*
X0122269*
Y088475*
X0122494*
X0122461Y0884783*
X0122568Y0884676*
X0122647Y0884637*
X0122624Y088466*
Y0884474*
X0122663*
Y0884542*
X0122747Y0884458*
X0122742Y0884468*
Y0884409*
Y088433*
Y0884291*
Y0884251*
Y0884212*
Y0884232*
X0122702Y0884153*
Y0884055*
Y0884119*
X0122736Y0884153*
X0122624Y088404*
Y0883956*
X0122618Y0883956*
X0122652Y088399*
X0122612*
X0122573Y088395*
X0122534*
X0122494Y0883911*
X01225*
X0122332Y0883827*
X0122337Y0883832*
X0122303*
X0122224Y0883793*
X0122106*
X0122027Y0883753*
X0121968*
X012185*
X0121732*
X0121692*
X0121653*
X0121614*
X0121574*
X0121496*
X0121456*
X0121379*
X0121261Y0883793*
X0121205*
X0121166Y0883832*
X0121087*
X0121048Y0883872*
X0120964*
X0120931Y0883898*
X012082Y0883963*
X0120705Y0884036*
X0120801Y0883991*
Y0884001*
X0120761Y088404*
Y0884035*
X0120696Y0884166*
X0120683Y0884192*
Y0884212*
Y088433*
Y088437*
Y0884409*
Y0884448*
Y0884429*
X0120722Y0884507*
Y0884547*
X0120761Y0884635*
X0120755Y0884614*
X0120767Y0884626*
X0120778Y0884637*
X0120856Y0884676*
X0120924Y0884744*
X0120935Y0884755*
X0120925Y088475*
X0120964*
X0121132Y0884833*
X0121127Y0884828*
X0121102*
X0121141*
X0121431*
Y0884868*
X012122*
X0121259*
X0121299*
X0121377*
X012152*
X012156Y0884907*
X0121535*
X0121574*
X0121653*
X0121732*
X0121771*
X0121811*
X01209Y0884D02*
X01225D01*
X01208Y08845D02*
X01225D01*
X0692663Y088412D02*
X0693765D01*
Y0884136*
X0692707Y088269*
X0692848*
Y0884305*
X0692494*
Y088412*
X0692848*
Y088471*
X0692663*
Y088412*
X06927Y08828D02*
Y08827D01*
Y08842D02*
Y08847D01*
X06932Y08835D02*
Y0884D01*
X06937Y08841D02*
Y0884D01*
X0683844Y088412D02*
X0684946D01*
Y0884136*
X0683888Y088269*
X0684029*
Y0884305*
X0683675*
Y088412*
X0684029*
Y088471*
X0683844*
Y088412*
X06839Y08828D02*
Y08827D01*
Y08842D02*
Y08847D01*
X06844Y08836D02*
Y0884D01*
X0108818Y01066D02*
X0108858D01*
X0108833*
X0108872Y0106561*
X0109094*
X0109172*
X010929Y0106521*
X0109311*
X0109389Y0106482*
X0109384*
X0109424Y0106442*
X0109502*
X0109468Y0106476*
X0109576Y0106369*
X0109616Y0106349*
X0109729Y0106277*
X0109631Y0106323*
Y0106167*
X0109671*
Y0106235*
X010971Y0106195*
Y0106179*
X010975Y0106061*
Y0106023*
Y0105984*
Y0105944*
Y0106009*
X010971Y0105969*
Y0105787*
Y0105851*
X0109671Y0105812*
Y0105772*
X0109705Y0105806*
X0109592Y0105694*
Y0105615*
X0109655Y0105677*
X0109576Y0105638*
X0109581Y0105643*
X0109542*
X0109502Y0105604*
X0109507*
X0109376Y0105538*
X010935Y0105525*
X0109329*
X0109211Y0105486*
X0109132*
X0109014Y0105446*
X0108976*
X0108858*
X01087*
X0108661*
X0108582*
X0108543*
X0108503*
X0108464*
X0108387*
X0108268Y0105486*
X0108169*
X010809Y0105525*
X0107992*
X0108202*
Y0105564*
X0107972*
X0107946Y0105577*
X0107903Y0105599*
X0107864Y0105638*
X0107785Y0105677*
X0107809Y0105654*
Y0105694*
X0107696Y0105806*
X010773Y0105772*
Y0105807*
X010769Y0105885*
Y0105905*
Y0106023*
Y0106062*
Y0106102*
Y0106141*
Y0106122*
X010773Y01062*
Y010624*
X0107769Y0106328*
X0107763Y0106307*
X0107775Y0106319*
X0107814Y0106358*
X0107825Y0106369*
X0108005Y0106459*
Y0106403*
X0107898*
X0107938Y0106442*
X0108016*
X01081Y0106526*
X010809Y0106521*
X010811*
X0108253*
X0108292Y0106561*
X0108228*
X0108267*
X0108307*
X0108346*
X0108528*
X0108568Y01066*
X0108503*
X0108582*
X0108661*
X01087*
X010874*
X0108779*
X0108818*
X0108Y01056D02*
X01095D01*
X01078Y01061D02*
X01097D01*
X0834316Y0355776D02*
Y0355919D01*
X0832663*
Y0355564*
X0832887*
Y0355919*
X0832297*
Y0355734*
X0832887*
Y0356836*
X0832833*
X0834316Y0355776*
X08324Y03558D02*
X08328D01*
X0833Y03563D02*
X08335D01*
X0834316Y0346957D02*
Y03471D01*
X0832663*
Y0346746*
X0832887*
Y03471*
X0832297*
Y0346915*
X0832887*
Y0348017*
X0832833*
X0834316Y0346957*
X08324Y03469D02*
X08328D01*
X0833Y03474D02*
X08336D01*
X0833Y03479D02*
X08329D01*
X083282Y0489202D02*
Y0489344D01*
X0831167*
Y048899*
X0831391*
Y0489344*
X0830801*
Y0489159*
X0831391*
Y0490261*
X0831337*
X083282Y0489202*
X08309Y04892D02*
X08313D01*
X08315Y04897D02*
X08321D01*
X08315Y04902D02*
X08314D01*
X083282Y0480419D02*
Y0480525D01*
X0831167*
Y0480171*
X0831391*
Y0480525*
X0830801*
Y048034*
X0831391*
Y0481442*
X0831339*
X083282Y0480419*
X08309Y04804D02*
X08313D01*
X08315Y04809D02*
X0832D01*
X0831324Y0586797D02*
Y0586903D01*
X0829671*
Y0586588*
X0829895*
Y0586903*
X0829305*
Y0586718*
X0829895*
Y058782*
X0829843*
X0831324Y0586797*
X08294Y05868D02*
X08298D01*
X083Y05873D02*
X08305D01*
X0831324Y0577979D02*
Y0578084D01*
X0829671*
Y0577769*
X0829895*
Y0578084*
X0829305*
Y0577899*
X0829895*
Y0579001*
X0829843*
X0831324Y0577979*
X08294Y0578D02*
X08298D01*
X083Y05785D02*
X08305D01*
X0841324Y0707272D02*
Y0707415D01*
X0839671*
Y0707061*
X0839895*
Y0707415*
X0839305*
Y070723*
X0839895*
Y0708332*
X0839841*
X0841324Y0707272*
X08394Y07073D02*
X08398D01*
X084Y07078D02*
X08405D01*
X0841324Y0698454D02*
Y0698596D01*
X0839671*
Y0698242*
X0839895*
Y0698596*
X0839305*
Y0698411*
X0839895*
Y0699513*
X0839841*
X0841324Y0698454*
X08394Y06984D02*
X08398D01*
X084Y06989D02*
X08406D01*
X084Y06994D02*
X08399D01*
X084282Y0832705D02*
Y0832848D01*
X0841167*
Y0832494*
X0841391*
Y0832848*
X0840801*
Y0832663*
X0841391*
Y0833765*
X0841337*
X084282Y0832705*
X08409Y08327D02*
X08413D01*
X08415Y08332D02*
X08421D01*
X08415Y08337D02*
X08414D01*
X084282Y0823887D02*
Y0824029D01*
X0841167*
Y0823675*
X0841391*
Y0824029*
X0840801*
Y0823844*
X0841391*
Y0824946*
X0841337*
X084282Y0823887*
X08409Y08239D02*
X08413D01*
X08415Y08244D02*
X0842D01*
X0084842Y0845891D02*
X0084881D01*
X0084921*
X008496*
X0085038*
X0085156Y0845852*
X0085255*
X0085334Y0845812*
X0085329*
X0085368Y0845773*
X0085452*
X0085478Y084576*
X0085521Y0845739*
X0085531Y0845728*
X0085639Y0845621*
X0085616Y0845632*
Y0845644*
X0085728Y0845531*
X0085694Y0845565*
Y0845531*
X0085734Y0845452*
Y0845433*
Y0845314*
Y0845275*
Y0845236*
Y0845196*
Y0845157*
Y0845221*
X0085694Y0845182*
Y0845098*
X0085655Y0845019*
Y0845024*
X0085689Y0845058*
X0085649Y0845019*
X008561Y0844979*
X0085498Y0844867*
Y0844974*
X0085708*
X0085565*
X0085526Y0844935*
X0085486*
X0085374Y0844822*
X0085408Y0844856*
X0085374*
X0085295Y0844816*
X0085235*
X0085116Y0844777*
X0085078*
X008492*
X0084801Y0844738*
X0084724*
X0084685*
X0084645*
X0084606*
X0084566*
X0084586*
X0084507Y0844777*
X008433*
X0084253*
X0084135Y0844816*
X0084114*
X0084035Y0844856*
X008404*
X0084001Y0844895*
X0083922*
X0083927Y084489*
X0083848Y0844929*
X0083827Y0844951*
X0083737Y0845131*
X0083793*
Y084498*
X0083709Y0845148*
X0083714Y0845142*
Y0845158*
X0083675Y0845276*
Y0845314*
Y0845354*
Y0845393*
Y0845374*
X0083714Y0845452*
Y0845551*
Y0845526*
X008368Y0845492*
X0083793Y0845605*
Y0845498*
X0083686*
X0083827Y0845639*
X0083866Y0845718*
X0083877Y0845728*
X0083843Y0845694*
X0083779*
X0083922*
X0084035Y0845807*
X0084001Y0845773*
X0084035*
X0084166Y0845839*
X0084192Y0845852*
X0084173*
X0084212*
X0084251*
X0084394*
X0084434Y0845891*
X008437*
X0084409*
X0084448*
X0084527*
X0084566*
X0084645*
X0084724*
X0084763*
X0084803*
X0084842*
X00839Y08449D02*
X00854D01*
X00838Y08454D02*
X00857D01*
X0084842Y0431403D02*
X0084881D01*
X0084921*
X008492*
X0085038Y0431364*
X0085156*
X0085274Y0431324*
X008529*
X0085329Y0431285*
X0085472*
X0085261*
Y0431246*
X0085531*
X0085531Y043124*
X008561Y0431161*
X0085689Y0431083*
X00857Y0431072*
X0085694Y0431082*
Y0431043*
X0085734Y0430964*
Y0430905*
Y0430826*
Y0430787*
Y0430748*
Y0430708*
Y0430669*
Y0430688*
X0085694Y043061*
Y0430615*
X0085655Y0430575*
Y0430536*
X008566Y0430541*
X0085621Y0430463*
X008561Y0430452*
X0085644Y0430486*
X0085605*
X0085565Y0430446*
X0085526*
X0085486Y0430407*
X0085447*
X0085408Y0430368*
X0085374*
X0085242Y0430302*
X0085216Y0430289*
X0085157*
X0085038*
X008492Y043025*
X0084842*
X0084724*
X0084685*
X0084645*
X0084606*
X0084566*
X0084527*
X0084489*
X0084371Y0430289*
X0084253*
X0084135Y0430328*
X0084055*
X0084226*
Y0430368*
X0083937*
X0083956*
X0083923Y0430394*
X0083856Y0430433*
X0083798Y0430491*
X0083759Y0430531*
X0083793Y0430497*
Y0430536*
X0083709Y043062*
X0083714Y043061*
Y0430688*
X0083675Y0430767*
Y0430826*
Y0430866*
Y0430905*
Y0430841*
X0083714Y043088*
Y0431062*
Y0431043*
X008372Y0431043*
X0083759Y0431083*
X0083798Y0431122*
X0083838Y0431161*
X0083877Y0431201*
X0083916Y043124*
X0083883Y0431206*
X0083922*
X0083961Y0431246*
X0083956*
X0084088Y0431311*
X0084114Y0431324*
X0084237*
X0084276Y0431364*
X0084212*
X0084251*
X0084291*
X008433*
X008437*
X0084513*
X0084552Y0431403*
X0084527*
X0084566*
X0084645*
X0084724*
X0084763*
X0084803*
X0084842*
X0084Y04304D02*
X00855D01*
X00838Y04309D02*
X00857D01*
X0083818Y0700379D02*
X0083858D01*
X0083937*
X0083976*
X0084053*
X0084172Y070034*
X0084227*
X0084266Y0700301*
X0084448*
X0084238*
Y0700261*
X0084468*
X0084501Y0700235*
X0084612Y070017*
X0084727Y0700097*
X0084631Y0700142*
Y0700132*
X0084671Y0700093*
Y0700098*
X008471Y0700019*
Y069994*
X008475Y0699862*
Y0699803*
Y0699763*
Y0699724*
Y0699788*
X008471Y0699749*
Y0699606*
Y069967*
X0084671Y0699631*
Y0699547*
X0084631Y0699458*
X0084638Y069948*
X0084655Y0699496*
X0084474Y0699406*
Y0699462*
X0084581*
X0084542Y0699423*
X0084502*
X0084463Y0699383*
X0084429*
X008435Y0699344*
X0084329*
X0084211Y0699305*
X0084132*
X0084014Y0699265*
X0083976*
X0083858*
X00837*
X0083661*
X0083582*
X0083543*
X0083503*
X0083464*
X0083387*
X0083268Y0699305*
X0083169*
X008309Y0699344*
X0082992*
X0083056*
X0083061Y0699339*
X0082946Y0699396*
X0082903Y0699418*
X0082864Y0699457*
X0082785Y0699496*
X0082809Y0699473*
Y0699513*
X0082696Y0699625*
X008273Y0699591*
Y0699625*
X008269Y0699704*
Y0699724*
Y0699803*
Y0699842*
Y0699881*
Y069996*
Y0699896*
X008273Y0699935*
Y0700014*
X0082769Y0700053*
Y0700093*
X0082809Y0700132*
Y0700172*
X0082775Y0700138*
X0082814Y0700177*
X0082825Y0700188*
X0082903Y0700227*
X0082898Y0700222*
X0082893*
X0083061Y0700306*
X0083056Y0700301*
X008309*
X0083169Y070034*
X0083149*
X0083188*
X0083478*
Y0700379*
X0083267*
X0083307*
X0083346*
X0083425*
X0083464*
X0083503*
X0083582*
X0083661*
X00837*
X008374*
X0083779*
X0083818*
X00829Y06995D02*
X00847D01*
X00828Y07D02*
X00847D01*
X0084842Y0770891D02*
X0084881D01*
X0084921*
X008496*
X0085038*
X0085156Y0770852*
X0085255*
X0085334Y0770812*
X0085329*
X0085368Y0770773*
X0085452*
X0085478Y077076*
X0085521Y0770739*
X0085531Y0770728*
X0085639Y0770621*
X0085616Y0770632*
Y0770644*
X0085728Y0770531*
X0085694Y0770565*
Y0770531*
X0085734Y0770452*
Y0770433*
Y0770314*
Y0770275*
Y0770236*
Y0770196*
Y0770157*
Y0770221*
X0085694Y0770182*
Y0770098*
X0085655Y0770019*
Y0770024*
X0085689Y0770058*
X0085649Y0770019*
X008561Y0769979*
X0085498Y0769867*
Y0769974*
X0085708*
X0085565*
X0085526Y0769935*
X0085486*
X0085374Y0769822*
X0085408Y0769856*
X0085374*
X0085295Y0769816*
X0085235*
X0085116Y0769777*
X0085078*
X008492*
X0084801Y0769738*
X0084724*
X0084685*
X0084645*
X0084606*
X0084566*
X0084586*
X0084507Y0769777*
X008433*
X0084253*
X0084135Y0769816*
X0084114*
X0084035Y0769856*
X008404*
X0084001Y0769895*
X0083922*
X0083927Y076989*
X0083848Y0769929*
X0083827Y0769951*
X0083737Y0770131*
X0083793*
Y076998*
X0083709Y0770148*
X0083714Y0770142*
Y0770158*
X0083675Y0770276*
Y0770314*
Y0770354*
Y0770393*
Y0770374*
X0083714Y0770452*
Y0770551*
Y0770526*
X008368Y0770492*
X0083793Y0770605*
Y0770498*
X0083686*
X0083827Y0770639*
X0083866Y0770718*
X0083877Y0770728*
X0083843Y0770694*
X0083779*
X0083922*
X0084035Y0770807*
X0084001Y0770773*
X0084035*
X0084166Y0770839*
X0084192Y0770852*
X0084173*
X0084212*
X0084251*
X0084394*
X0084434Y0770891*
X008437*
X0084409*
X0084448*
X0084527*
X0084566*
X0084645*
X0084724*
X0084763*
X0084803*
X0084842*
X00839Y07699D02*
X00854D01*
X00838Y07704D02*
X00857D01*
X0083715Y0632938D02*
X0083858D01*
X0083937*
X0083976*
X0084094*
X0084172*
X008429Y0632899*
X0084311*
X0084389Y063286*
X0084384*
X0084379Y0632865*
X0084547Y0632781*
X0084579Y0632755*
X0084612Y0632736*
X0084688Y0632584*
X0084631*
Y0632691*
X0084671Y0632652*
Y0632657*
X008471Y0632578*
Y0632557*
X008475Y0632439*
Y0632401*
Y0632362*
Y0632322*
Y0632283*
Y0632347*
X008471Y0632308*
Y0632165*
Y0632229*
X0084671Y063219*
Y063215*
X0084676Y0632155*
X0084592Y0631988*
Y0631993*
X0084655Y0632055*
X0084576Y0632016*
X0084581Y0632021*
X0084542*
X0084429Y0631909*
X0084463Y0631942*
X0084429*
X008435Y0631903*
X0084329*
X0084211Y0631864*
X0084132*
X0084014Y0631824*
X0083976*
X0083858*
X00837*
X0083661*
X0083582*
X0083543*
X0083503*
X0083464*
X0083387*
X0083268Y0631864*
X0083169*
X008309Y0631903*
X0082992*
X0083202*
Y0631942*
X0082972*
X0082946Y0631955*
X0082903Y0631977*
X0082864Y0632016*
X0082785Y0632055*
X0082809Y0632032*
Y0632072*
X0082696Y0632184*
X008273Y063215*
Y0632185*
X008269Y0632263*
Y0632283*
Y0632401*
Y063244*
Y063248*
Y0632519*
Y06325*
X008273Y0632578*
Y0632618*
X0082769Y0632706*
X0082763Y0632685*
X0082775Y0632697*
X0082814Y0632736*
X0082825Y0632747*
X0083005Y0632837*
Y0632781*
X0082898*
X0082938Y063282*
X0083016*
X00831Y0632904*
X008309Y0632899*
X008311*
X0083149*
X0083292*
X0083331Y0632938*
X0083267*
X0083307*
X0083346*
X0083425*
X0083464*
X0083503*
X0083641*
X008372Y0632978*
X00837*
X008374*
X0083675*
X0083715Y0632938*
X0083Y0632D02*
X00845D01*
X00828Y06325D02*
X00847D01*
X0080314Y0540379D02*
X0080354D01*
X0080433*
X0080472*
X0080549*
X0080668Y054034*
X0080723*
X0080762Y0540301*
X0080944*
X0080734*
Y0540261*
X0080964*
X0080997Y0540235*
X0081108Y054017*
X0081223Y0540097*
X0081127Y0540142*
Y0540132*
X0081167Y0540093*
Y0540098*
X0081233Y0539966*
X0081246Y053994*
Y0539921*
Y0539803*
Y0539763*
Y0539724*
Y0539685*
Y0539749*
X0081206Y0539709*
Y0539566*
Y0539631*
X0081211Y0539636*
X0081127Y0539468*
Y0539473*
X0081161Y0539507*
X0081122Y0539468*
X0081156Y0539501*
X008097*
Y0539462*
X0081077*
X0081038Y0539423*
X0080998*
X0080959Y0539383*
X008088*
X0080841Y0539344*
X0080807*
X0080728Y0539305*
X008061*
X0080531Y0539265*
X0080472*
X0080354*
X0080196*
X0080157*
X0080118*
X0080039*
X008*
X007996*
X0079883*
X0079764Y0539305*
X0079709*
X007967Y0539344*
X0079488*
X0079552*
X0079557Y0539339*
X0079478Y0539378*
X0079439Y0539418*
X0079324Y0539475*
X0079209Y0539547*
X0079305Y0539503*
Y0539513*
X0079265Y0539552*
Y0539547*
X0079199Y0539678*
X0079187Y0539704*
Y0539724*
Y0539803*
Y0539842*
Y0539881*
Y053996*
Y0539896*
X0079226Y0539935*
Y0540014*
X0079265Y0540053*
Y0540093*
X0079305Y0540132*
Y0540172*
X0079271Y0540138*
X007931Y0540177*
X0079321Y0540188*
X007931Y0540183*
X0079541*
Y0540222*
X0079473*
X0079557Y0540306*
X0079547Y0540301*
X0079586*
X0079665Y054034*
X0079645*
X0079685*
X0079974*
Y0540379*
X0079763*
X0079803*
X0079842*
X0079921*
X007996*
X0080039*
X0080078*
X0080157*
X0080196*
X0080236*
X0080275*
X0080314*
X00794Y05395D02*
X0081D01*
X00793Y054D02*
X00812D01*
M02*