%FSTAX25Y25*%
%MOIN*%
%SFA1B1*%

%IPPOS*%
%ADD10O,0.082677X0.025591*%
%ADD11R,0.106299X0.220472*%
%ADD12R,0.220472X0.106299*%
%ADD13R,0.224409X0.078740*%
%ADD14R,0.062992X0.041339*%
%ADD15R,0.078740X0.224409*%
%ADD16R,0.074803X0.173228*%
%ADD17R,0.041339X0.062992*%
G54D10*
X0870314Y0254488D03*
Y0249488D03*
Y0244488D03*
Y0239488D03*
Y0234488D03*
Y0229488D03*
Y0224488D03*
Y0219488D03*
Y0214488D03*
Y0209488D03*
X0908503Y0254488D03*
Y0249488D03*
Y0244488D03*
Y0239488D03*
Y0234488D03*
Y0229488D03*
Y0224488D03*
Y0219488D03*
Y0214488D03*
Y0209488D03*
X0060669Y0295511D03*
X006559Y0159488D03*
X0880393Y0126496D03*
Y0121496D03*
Y0116496D03*
Y0111496D03*
Y0106496D03*
Y0101496D03*
Y0096496D03*
Y0091496D03*
Y0086496D03*
Y0081496D03*
X0918582Y0126496D03*
Y0121496D03*
Y0116496D03*
Y0111496D03*
Y0106496D03*
Y0101496D03*
Y0096496D03*
Y0091496D03*
Y0086496D03*
Y0081496D03*
X0022519Y0310511D03*
Y0305511D03*
Y0300511D03*
Y0295511D03*
Y0290511D03*
Y0285511D03*
Y0280511D03*
Y0275511D03*
Y0270511D03*
Y0265511D03*
X0060669Y0310511D03*
Y0305511D03*
Y0300511D03*
Y0290511D03*
Y0285511D03*
Y0280511D03*
Y0275511D03*
Y0270511D03*
Y0265511D03*
X0027401Y0174488D03*
Y0169488D03*
Y0164488D03*
Y0159488D03*
Y0154488D03*
Y0149488D03*
Y0144488D03*
Y0139488D03*
Y0134488D03*
Y0129488D03*
X006559Y0174488D03*
Y0169488D03*
Y0164488D03*
Y0154488D03*
Y0149488D03*
Y0144488D03*
Y0139488D03*
Y0134488D03*
Y0129488D03*
G54D11*
X0884015Y0887519D03*
X0611377D03*
X0418425Y0886496D03*
X0683582Y0885D03*
X0518937D03*
X0739055Y0089488D03*
X0525078Y0092519D03*
X0418582Y0089488D03*
X062748Y0080984D03*
X0324921Y0887519D03*
X0218425Y0889015D03*
X0301062Y0095D03*
X0199488Y0097992D03*
X0397559Y0886496D03*
X0590511Y0887519D03*
X049807Y0885D03*
X0304055Y0887519D03*
X0197559Y0889015D03*
X0863149Y0887519D03*
X0648346Y0080984D03*
X0545944Y0092519D03*
X0439448Y0089488D03*
X0321929Y0095D03*
X0220354Y0097992D03*
X0759921Y0089488D03*
X0704448Y0885D03*
G54D12*
X0840511Y0823582D03*
X0839015Y0698149D03*
X0830511Y0480078D03*
X0829015Y0577637D03*
X0832007Y0346614D03*
X0085984Y0854921D03*
Y0779921D03*
X0085Y0709448D03*
Y0642007D03*
X0081496Y0549448D03*
X0085984Y0440433D03*
X0832007Y0367519D03*
X0830511Y0500944D03*
X0829015Y0598503D03*
X0839015Y0719015D03*
X0840511Y0844448D03*
X0085984Y0834055D03*
Y0419566D03*
X0085Y0688582D03*
X0085984Y0759055D03*
X0085Y0621141D03*
X0081496Y0528582D03*
G54D13*
X0794094Y081D03*
X0755905D03*
G54D14*
X0692992Y0835314D03*
X0122992Y0889291D03*
X011Y0110984D03*
X0692992Y08237D03*
X0122992Y0877677D03*
X011Y009937D03*
G54D15*
X0590511Y0827598D03*
Y0789409D03*
G54D16*
X0222007Y0845118D03*
Y0810866D03*
G54D17*
X0043188Y0909015D03*
X0054803D03*
M02*