%FSTAX25Y25*%
%MOIN*%
%SFA1B1*%

%IPPOS*%
%ADD19C,0.078740*%
%ADD21C,0.078740*%
%ADD22C,0.051181*%
%ADD23C,0.074803*%
%ADD24C,0.059842*%
%ADD25C,0.053543*%
%ADD26C,0.244094*%
%ADD27R,0.059842X0.059842*%
%ADD28R,0.053543X0.053543*%
%ADD29C,0.125984*%
%ADD30R,0.051181X0.051181*%
%ADD31C,0.050000*%
G54D19*
X0924015Y0067992D02*
X0938149D01*
X0942755Y0072598*
X0815511Y0144015D02*
X0857992D01*
X0922519Y0249015D02*
X0932401D01*
X0937007Y0253622*
Y0428385*
X0852992Y0272007D02*
Y0274015D01*
X0582007Y0545D02*
X0852992Y0274015D01*
X0926692Y0227204D02*
X0932677D01*
X0810511Y0245D02*
X0811496Y0244015D01*
X0852007*
X0833503Y0104488D02*
X0835D01*
X0785Y0152992D02*
X0833503Y0104488D01*
X0219488Y0615984D02*
X0220984Y0617519D01*
X0219488Y0512992D02*
Y0615984D01*
X0551496Y0407992D02*
X0815511Y0144015D01*
X0834133Y0169015D02*
X0846377Y0156732D01*
X0843503Y0172007D02*
X0937401D01*
X0819015Y0169015D02*
X0834133D01*
X0797519Y0217992D02*
X0843503Y0172007D01*
X0761496Y0226496D02*
X0819015Y0169015D01*
X0846377Y0156732D02*
X0900236D01*
X047311Y0407992D02*
X0551496D01*
X0707007Y021D02*
X0854488Y0062519D01*
X0547007Y0525D02*
X0788503Y0283503D01*
X0792874*
X0797519Y0278897*
X0892992Y019D02*
X0931889D01*
X0797519Y0217992D02*
Y0278897D01*
X0937401Y0172007D02*
X0942755Y0166614D01*
X0932401Y0432992D02*
X0937007Y0428385D01*
X0145511Y0635511D02*
X0241496D01*
X0755944Y0445039D02*
X0772007Y0429015D01*
X0792992Y0437598D02*
Y0738897D01*
X0797598Y0432992D02*
X0932401D01*
X0792992Y0437598D02*
X0797598Y0432992D01*
X0788385Y0743503D02*
X0792992Y0738897D01*
X0331102Y0743503D02*
X0788385D01*
X0118503Y064748D02*
X0127007Y0655984D01*
X0050984Y0555984D02*
X0118503Y0623503D01*
X0127007Y0655984D02*
X0272874D01*
X0118503Y0623503D02*
Y064748D01*
X010248Y059248D02*
X0145511Y0635511D01*
X0050984Y0492125D02*
Y0555984D01*
X010248Y0486614D02*
Y059248D01*
X0221496Y0413503D02*
X0224015Y0410984D01*
Y0402598D02*
Y0410984D01*
Y0402598D02*
X0228622Y0397992D01*
X0345905*
X0350511Y0393385*
Y036059D02*
Y0393385D01*
Y036059D02*
X0352992Y035811D01*
Y0357519D02*
Y035811D01*
Y0357519D02*
X0355511Y0355D01*
X0368779Y0467519D02*
X0400511D01*
X0363858Y0462598D02*
X0368779Y0467519D01*
X0145Y0445D02*
X0301377D01*
X0319015Y0462598D02*
X0363858D01*
X0301377Y0445D02*
X0319015Y0462598D01*
X0172362Y0357401D02*
X0182244D01*
X0152992Y029D02*
Y0355511D01*
X0182244Y0357401D02*
X018748Y0362598D01*
X0152125Y0371102D02*
X0158622D01*
X018748Y0362598D02*
X0197401D01*
X0158622Y0371102D02*
X0172362Y0357401D01*
X0113503Y0332519D02*
X0152125Y0371102D01*
X0202007Y0367204D02*
Y0377007D01*
X0197401Y0362598D02*
X0202007Y0367204D01*
X0326496Y0497007D02*
X0332007Y0491496D01*
X0340511Y0498503D02*
X0347992Y0490984D01*
X0326496Y0497007D02*
Y0738897D01*
X0352992Y0505D02*
Y0697992D01*
X0360511Y0705511*
X0447519Y0618503*
X0881496Y0062519D02*
X0897007Y0047007D01*
X0854488Y0062519D02*
X0881496D01*
X0942755Y0072598D02*
Y0166614D01*
X0936496Y0194606D02*
Y0223385D01*
X0931889Y019D02*
X0936496Y0194606D01*
X0932677Y0227204D02*
X0936496Y0223385D01*
X0655Y0524015D02*
Y0527874D01*
X0650393Y0532519D02*
X0655Y0527874D01*
X0622519Y0532519D02*
X0650393D01*
X0536496Y0618503D02*
X0622519Y0532519D01*
X0447519Y0618503D02*
X0536496D01*
X0340511Y0710275D02*
Y072937D01*
X0335472Y0521377D02*
Y0705236D01*
X0344251Y0525D02*
Y0701614D01*
X0340511Y0498503D02*
Y0516377D01*
X0335472Y0705236D02*
X0340511Y0710275D01*
X0335472Y0521377D02*
X0340511Y0516377D01*
X0350511Y0707874D02*
Y0720629D01*
X0344251Y0701614D02*
X0350511Y0707874D01*
X0900236Y0156732D02*
X093248Y0124488D01*
X0761496Y0226496D02*
Y0254488D01*
X0755944Y0445039D02*
Y0717952D01*
X0739881Y0734015D02*
X0755944Y0717952D01*
X0345118Y0734015D02*
X0739881D01*
X0340511Y072937D02*
X0345118Y0734015D01*
X0365511Y0545D02*
X0582007D01*
X0736496Y0427992D02*
X0777519Y0387007D01*
X0719488Y0725236D02*
X0724094Y0720629D01*
X0355118Y0725236D02*
X0719488D01*
X0724094Y0424094D02*
Y0720629D01*
X0350511D02*
X0355118Y0725236D01*
X0368622Y051248D02*
X047311Y0407992D01*
X0367992Y051248D02*
X0368622D01*
X0365511Y0515D02*
X0367992Y051248D01*
X0719685Y0419685D02*
X0724094Y0424094D01*
X0736496Y0427992D02*
Y0481496D01*
X0326496Y0738897D02*
X0331102Y0743503D01*
X0813503Y047248D02*
Y0559488D01*
X0804488Y0568503D02*
X0813503Y0559488D01*
X0804488Y0568503D02*
Y0632992D01*
X0804015Y0462992D02*
X0813503Y047248D01*
X0759488Y0758503D02*
X0762519Y0761496D01*
X0325984Y0758503D02*
X0759488D01*
X0318267Y076622D02*
X0325984Y0758503D01*
X0311732Y076622D02*
X0318267D01*
X0306496Y0760984D02*
X0311732Y076622D01*
X0306496Y0520511D02*
Y0760984D01*
X0311377Y0778267D02*
X0786141D01*
X0744488Y085D02*
X0865D01*
X0786141Y0778267D02*
X0812007Y0752401D01*
X0290984Y0525511D02*
Y0757874D01*
X0311377Y0778267*
X0277519Y0517007D02*
Y0651377D01*
X0804488Y0632992D02*
X0812007Y0640511D01*
Y0752401*
X0792992Y0305984D02*
X0796496Y030248D01*
X0792007Y0305984D02*
X0792992D01*
X0562992Y0535D02*
X0792007Y0305984D01*
X0456496Y0205984D02*
Y0400393D01*
X0419015Y0168503D02*
X0456496Y0205984D01*
X0375511Y0168503D02*
X0419015D01*
X0365511Y0405D02*
X0451889D01*
X0456496Y0400393*
X0435984Y0214488D02*
Y0316377D01*
X0397401Y0355D02*
X0435984Y0316377D01*
X0365511Y0355D02*
X0397401D01*
X0132992Y0432992D02*
X0145Y0445D01*
X0272874Y0655984D02*
X0277519Y0651377D01*
X0097874Y0482007D02*
X010248Y0486614D01*
X0241496Y0635511D02*
X0247007Y063D01*
Y0517992D02*
Y063D01*
X0046377Y048748D02*
X0050984Y0492125D01*
X0365511Y0525D02*
X0547007D01*
X0365511Y0535D02*
X0562992D01*
X0634015Y0864015D02*
X0636496Y0866496D01*
X0587992Y0864015D02*
X0634015D01*
X020744Y0276929D02*
X023Y025437D01*
Y0227007D02*
Y025437D01*
X0222007Y0219015D02*
X023Y0227007D01*
X0109566Y0276929D02*
X020744D01*
X0165984Y0219015D02*
X0222007D01*
X0092992Y0395984D02*
Y0404488D01*
Y0395984D02*
X01Y0389015D01*
Y0359015D02*
Y0389015D01*
X0087519Y0166496D02*
X0087992Y0167007D01*
X0087519Y0104015D02*
Y0166496D01*
X0087007Y0299488D02*
X0109566Y0276929D01*
X0013503Y0297519D02*
X0014015Y0297992D01*
Y0324015*
X0019015Y0329015*
X0035511*
X0022519Y0345D02*
X0023503Y0345984D01*
X0052519D02*
Y0399015D01*
X0035511Y0329015D02*
X0052519Y0345984D01*
X0023503D02*
Y0365511D01*
X000748Y0381496D02*
X0023503Y0365511D01*
X000748Y0381496D02*
Y0429015D01*
X0009015Y0430511*
Y0470984*
X0018503Y0480511*
Y0482874*
X002311Y048748*
X0046377*
X0052519Y0399015D02*
X0062519Y0409015D01*
Y0473503*
X0070984Y0482007*
X0097874*
X0075511Y031D02*
Y0327874D01*
Y031D02*
X0077007Y0308503D01*
X0080118Y0332519D02*
X0113503D01*
X0075511Y0327874D02*
X0080118Y0332519D01*
X0152519Y0289488D02*
X0152992Y029D01*
X0097007Y0207992D02*
X0132992Y0172007D01*
X0205984*
X0025984Y0215511D02*
Y0228897D01*
X0022992Y021248D02*
X0025984Y0215511D01*
X0132992Y0409488D02*
Y0432992D01*
X0025984Y0228897D02*
X0030629Y0233503D01*
X0200511*
X0136496Y0197519D02*
X0230511D01*
X0307007Y0274015*
X0006496Y0112519D02*
Y0125984D01*
X0009015Y011D02*
X0017007Y0089015D01*
X0020511Y0088503D02*
X014248D01*
X0169015Y0119015*
Y0148385*
X0173622Y0152992*
X0272992*
X0397992Y0277992*
Y0342007*
X0716496Y0822007D02*
X0744488Y085D01*
X093744Y0821574D02*
X0942992Y0815984D01*
X093744Y0821574D02*
Y085996D01*
X0931889Y0865511D02*
X093744Y085996D01*
X0880511Y0865511D02*
X0931889D01*
X0865Y085D02*
X0880511Y0865511D01*
G54D21*
X0866496Y0936771D03*
X0782007Y0941299D03*
X0907007Y0837992D03*
X0902519Y071748D03*
X0893307Y0595511D03*
X0897007Y0496496D03*
X0906299Y0364488D03*
X0897007Y0476496D03*
X0906299Y0344488D03*
X0802007Y0941299D03*
X0886496Y0936771D03*
X0907007Y0817992D03*
X0902519Y069748D03*
X0893307Y0575511D03*
G54D22*
X0796338Y0882007D03*
G54D23*
X0686653Y0924803D03*
X0596653Y0926299D03*
X05Y0929015D03*
X0765Y0027007D03*
X0644488Y0025511D03*
X0549488Y0028503D03*
X0439015Y003622D03*
X0406653Y0929291D03*
X0307165D03*
X0199645D03*
X0117165D03*
X0062007Y094748D03*
X0033503Y0845D03*
X0035Y0764015D03*
X0033937Y0699015D03*
X0034921Y0625984D03*
X0324488Y0033228D03*
X0220984Y0035511D03*
X0121496Y0037007D03*
X0032007Y0534488D03*
Y0420984D03*
X0101496Y0037007D03*
X0200984Y0035511D03*
X0304488Y0033228D03*
X0419015Y003622D03*
X0529488Y0028503D03*
X0624488Y0025511D03*
X0745Y0027007D03*
X0616653Y0926299D03*
X0219645Y0929291D03*
X0137165D03*
X0327165D03*
X0426653D03*
X052Y0929015D03*
X0706653Y0924803D03*
X0032007Y0440984D03*
X0042007Y094748D03*
X0033503Y0865D03*
X0035Y0784015D03*
X0032007Y0554488D03*
X0033937Y0719015D03*
X0034921Y0645984D03*
G54D24*
X0693464Y0480354D03*
Y0660354D03*
Y0650354D03*
Y0640354D03*
Y0630354D03*
Y0620354D03*
X0703464Y0670354D03*
Y0660354D03*
Y0650354D03*
Y0640354D03*
Y0630354D03*
Y0620354D03*
X0693464Y0610354D03*
X0703464D03*
X0693464Y0600354D03*
Y0590354D03*
Y0580354D03*
Y0570354D03*
Y0560354D03*
Y0550354D03*
X0703464Y0600354D03*
Y0590354D03*
Y0580354D03*
Y0570354D03*
Y0560354D03*
Y0550354D03*
X0693464Y0540354D03*
X0703464D03*
X0693464Y0530354D03*
Y0520354D03*
Y0510354D03*
Y0500354D03*
Y0490354D03*
X0703464Y0530354D03*
Y0520354D03*
Y0510354D03*
Y0500354D03*
Y0490354D03*
Y0480354D03*
G54D25*
X0195511Y0345D03*
X0295511Y0355D03*
X0305511D03*
X0365511Y0535D03*
X0265511Y0355D03*
X0325511D03*
X0365511Y0545D03*
X0175511Y0605D03*
Y0595D03*
Y0585D03*
Y0575D03*
Y0565D03*
Y0555D03*
Y0545D03*
Y0525D03*
Y0515D03*
Y0505D03*
Y0495D03*
Y0485D03*
Y0475D03*
Y0465D03*
Y0455D03*
Y0435D03*
Y0425D03*
Y0415D03*
Y0405D03*
Y0395D03*
Y0385D03*
Y0375D03*
Y0365D03*
X0195511Y0355D03*
X0205511Y0345D03*
Y0355D03*
X0215511Y0345D03*
Y0355D03*
X0225511Y0345D03*
Y0355D03*
X0235511D03*
Y0345D03*
X0245511Y0355D03*
Y0345D03*
X0255511Y0355D03*
Y0345D03*
X0265511D03*
X0275511Y0355D03*
Y0345D03*
X0285511Y0355D03*
Y0345D03*
X0295511D03*
X0305511D03*
X0315511Y0355D03*
Y0345D03*
X0325511D03*
X0335511Y0355D03*
Y0345D03*
X0345511Y0355D03*
Y0345D03*
X0355511Y0355D03*
Y0345D03*
X0365511Y0355D03*
Y0345D03*
Y0385D03*
Y0395D03*
Y0405D03*
Y0415D03*
Y0425D03*
Y0435D03*
Y0445D03*
Y0455D03*
Y0475D03*
Y0485D03*
Y0495D03*
Y0505D03*
Y0515D03*
Y0525D03*
Y0560984D03*
Y0570984D03*
Y0580984D03*
Y0590984D03*
Y0600984D03*
Y0610984D03*
Y0620984D03*
Y0630984D03*
Y0640984D03*
Y0650984D03*
G54D26*
X0505551Y0689527D03*
Y0461181D03*
X0698464D03*
Y0689527D03*
G54D27*
X0693464Y0670354D03*
G54D28*
X0175511Y0615D03*
G54D29*
X0175511Y067D03*
X0195511Y0465D03*
X0305511D03*
X0365511Y0665D03*
X0175511Y0345D03*
X0365511Y037D03*
G54D30*
X0776653Y0882007D03*
G54D31*
X0924015Y0067992D03*
X0857992Y0144015D03*
X0926692Y0227204D03*
X0922519Y0249015D03*
X0852992Y0272007D03*
X0852007Y0244015D03*
X0835Y0104488D03*
X0785Y0152992D03*
X0220984Y0617519D03*
X0219488Y0512992D03*
X0892992Y019D03*
X0772007Y0429015D03*
X0221496Y0413503D03*
X0152992Y0355511D03*
X0347992Y0490984D03*
X0332007Y0491496D03*
X0352992Y0505D03*
X0897007Y0047007D03*
X0707007Y021D03*
X0655Y0524015D03*
X0344251Y0525D03*
X0932992Y0125511D03*
X0761496Y0254488D03*
X0719685Y0419685D03*
X0736496Y0481496D03*
X0777519Y0387007D03*
X0762519Y0761496D03*
X0306496Y0520511D03*
X0277519Y0517007D03*
X0810511Y0245D03*
X0804015Y0462992D03*
X0290984Y0525511D03*
X0796496Y030248D03*
X0435984Y0214488D03*
X0400511Y0467519D03*
X0636496Y0866496D03*
X0587992Y0864015D03*
X0165984Y0219015D03*
X0092992Y0404488D03*
X01Y0359015D03*
X0087007Y0299488D03*
X0087992Y0167007D03*
X0087519Y0104015D03*
X0013503Y0297519D03*
X0022519Y0345D03*
X0247007Y0517992D03*
X0202007Y0377007D03*
X0077007Y0308503D03*
X0152519Y0289488D03*
X0097007Y0207992D03*
X0205984Y0172007D03*
X0375511Y0168503D03*
X0022992Y021248D03*
X0132992Y0409488D03*
X0136496Y0197519D03*
X0307007Y0274015D03*
X0200511Y0233503D03*
X0006496Y0125984D03*
X0397992Y0342007D03*
X0716496Y0822007D03*
X0942992Y0815984D03*
X0865Y085D03*
M02*