%FSTAX25Y25*%
%MOIN*%
%SFA1B1*%

%IPPOS*%
%ADD35C,0.005118*%
G54D35*
X086374Y0936771D02*
X0869251D01*
X0866496Y0934015D02*
Y0939527D01*
X0779251Y0941299D02*
X0784763D01*
X0782007Y0938543D02*
Y0944055D01*
X0904251Y0837992D02*
X0909763D01*
X0907007Y0835236D02*
Y0840748D01*
X0899763Y071748D02*
X0905236D01*
X0902519Y0714724D02*
Y0720275D01*
X0794763Y0882007D02*
X0797913D01*
X0796338Y0880433D02*
Y0883582D01*
X0684094Y0924803D02*
X0689212D01*
X0686653Y0922244D02*
Y0927362D01*
X0594094Y0926299D02*
X0599212D01*
X0596653Y092374D02*
Y0928858D01*
X049744Y0929015D02*
X0502559D01*
X05Y0926456D02*
Y0931574D01*
X0890551Y0595511D02*
X0896062D01*
X0893307Y0592755D02*
Y0598267D01*
X0894251Y0496496D02*
X0899763D01*
X0897007Y049374D02*
Y0499251D01*
X0903543Y0364488D02*
X0909055D01*
X0906299Y0361732D02*
Y0367244D01*
X0691456Y0480354D02*
X0695472D01*
X0693464Y0478385D02*
Y0482362D01*
X076244Y0027007D02*
X0767559D01*
X0765Y0024448D02*
Y0029566D01*
X0641929Y0025511D02*
X0647047D01*
X0644488Y0022952D02*
Y002807D01*
X0546929Y0028503D02*
X0552047D01*
X0549488Y0025944D02*
Y0031062D01*
X0436456Y003622D02*
X0441574D01*
X0439015Y0033661D02*
Y0038779D01*
X0404094Y0929291D02*
X0409212D01*
X0406653Y0926732D02*
Y093185D01*
X0304606Y0929291D02*
X0309724D01*
X0307165Y0926732D02*
Y093185D01*
X0197086Y0929291D02*
X0202204D01*
X0199645Y0926732D02*
Y093185D01*
X0114606Y0929291D02*
X0119724D01*
X0117165Y0926732D02*
Y093185D01*
X0059448Y094748D02*
X0064566D01*
X0062007Y0944921D02*
Y0950078D01*
X0030944Y0845D02*
X0036062D01*
X0033503Y084244D02*
Y0847559D01*
X003244Y0764015D02*
X0037559D01*
X0035Y0761456D02*
Y0766574D01*
X0031377Y0699015D02*
X0036496D01*
X0033937Y0696456D02*
Y0701574D01*
X0032362Y0625984D02*
X003748D01*
X0034921Y0623425D02*
Y0628543D01*
X0193818Y0345D02*
X0197165D01*
X0195511Y0343346D02*
Y0346692D01*
X0321929Y0033228D02*
X0327047D01*
X0324488Y0030669D02*
Y0035787D01*
X0218425Y0035511D02*
X0223543D01*
X0220984Y0032952D02*
Y003807D01*
X0118937Y0037007D02*
X0124055D01*
X0121496Y0034448D02*
Y0039566D01*
X0029448Y0534488D02*
X0034566D01*
X0032007Y0531929D02*
Y0537047D01*
X0029448Y0420984D02*
X0034566D01*
X0032007Y0418425D02*
Y0423543D01*
X0293818Y0355D02*
X0297165D01*
X0295511Y0353346D02*
Y0356692D01*
X0303818Y0355D02*
X0307165D01*
X0305511Y0353346D02*
Y0356692D01*
X0363818Y0535D02*
X0367165D01*
X0365511Y0533307D02*
Y0536692D01*
X0263818Y0355D02*
X0267165D01*
X0265511Y0353346D02*
Y0356692D01*
X0323818Y0355D02*
X0327165D01*
X0325511Y0353346D02*
Y0356692D01*
X0363818Y0545D02*
X0367165D01*
X0365511Y0543346D02*
Y0546653D01*
X0894251Y0476496D02*
X0899763D01*
X0897007Y047374D02*
Y0479251D01*
X0903543Y0344488D02*
X0909055D01*
X0906299Y0341732D02*
Y0347244D01*
X0799251Y0941299D02*
X0804763D01*
X0802007Y0938543D02*
Y0944055D01*
X0098937Y0037007D02*
X0104055D01*
X0101496Y0034448D02*
Y0039566D01*
X0198425Y0035511D02*
X0203543D01*
X0200984Y0032952D02*
Y003807D01*
X0301929Y0033228D02*
X0307047D01*
X0304488Y0030669D02*
Y0035787D01*
X0416456Y003622D02*
X0421574D01*
X0419015Y0033661D02*
Y0038779D01*
X0526929Y0028503D02*
X0532047D01*
X0529488Y0025944D02*
Y0031062D01*
X0621929Y0025511D02*
X0627047D01*
X0624488Y0022952D02*
Y002807D01*
X074244Y0027007D02*
X0747559D01*
X0745Y0024448D02*
Y0029566D01*
X088374Y0936771D02*
X0889251D01*
X0886496Y0934015D02*
Y0939527D01*
X0904251Y0817992D02*
X0909763D01*
X0907007Y0815236D02*
Y0820748D01*
X0899763Y069748D02*
X0905236D01*
X0902519Y0694724D02*
Y0700275D01*
X0890551Y0575511D02*
X0896062D01*
X0893307Y0572755D02*
Y0578267D01*
X0614094Y0926299D02*
X0619212D01*
X0616653Y092374D02*
Y0928858D01*
X0217086Y0929291D02*
X0222204D01*
X0219645Y0926732D02*
Y093185D01*
X0134606Y0929291D02*
X0139724D01*
X0137165Y0926732D02*
Y093185D01*
X0324606Y0929291D02*
X0329724D01*
X0327165Y0926732D02*
Y093185D01*
X0424094Y0929291D02*
X0429212D01*
X0426653Y0926732D02*
Y093185D01*
X051744Y0929015D02*
X0522559D01*
X052Y0926456D02*
Y0931574D01*
X0704094Y0924803D02*
X0709212D01*
X0706653Y0922244D02*
Y0927362D01*
X0029448Y0440984D02*
X0034566D01*
X0032007Y0438425D02*
Y0443543D01*
X0039448Y094748D02*
X0044566D01*
X0042007Y0944921D02*
Y0950078D01*
X0030944Y0865D02*
X0036062D01*
X0033503Y086244D02*
Y0867559D01*
X003244Y0784015D02*
X0037559D01*
X0035Y0781456D02*
Y0786574D01*
X0029448Y0554488D02*
X0034566D01*
X0032007Y0551929D02*
Y0557047D01*
X0031377Y0719015D02*
X0036496D01*
X0033937Y0716456D02*
Y0721574D01*
X0032362Y0645984D02*
X003748D01*
X0034921Y0643425D02*
Y0648543D01*
X0500118Y0689527D02*
X0510944D01*
X0505551Y0684133D02*
Y069496D01*
X0500118Y0461181D02*
X0510944D01*
X0505551Y0455787D02*
Y0466614D01*
X0693031Y0461181D02*
X0703858D01*
X0698464Y0455787D02*
Y0466614D01*
X0693031Y0689527D02*
X0703858D01*
X0698464Y0684133D02*
Y069496D01*
X0691456Y0670354D02*
X0695472D01*
X0693464Y0668385D02*
Y0672362D01*
X0691456Y0660354D02*
X0695472D01*
X0693464Y0658385D02*
Y0662362D01*
X0691456Y0650354D02*
X0695472D01*
X0693464Y0648385D02*
Y0652362D01*
X0691456Y0640354D02*
X0695472D01*
X0693464Y0638385D02*
Y0642362D01*
X0691456Y0630354D02*
X0695472D01*
X0693464Y0628385D02*
Y0632362D01*
X0691456Y0620354D02*
X0695472D01*
X0693464Y0618385D02*
Y0622362D01*
X0701456Y0670354D02*
X0705472D01*
X0703464Y0668385D02*
Y0672362D01*
X0701456Y0660354D02*
X0705472D01*
X0703464Y0658385D02*
Y0662362D01*
X0701456Y0650354D02*
X0705472D01*
X0703464Y0648385D02*
Y0652362D01*
X0701456Y0640354D02*
X0705472D01*
X0703464Y0638385D02*
Y0642362D01*
X0701456Y0630354D02*
X0705472D01*
X0703464Y0628385D02*
Y0632362D01*
X0701456Y0620354D02*
X0705472D01*
X0703464Y0618385D02*
Y0622362D01*
X0691456Y0610354D02*
X0695472D01*
X0693464Y0608385D02*
Y0612362D01*
X0701456Y0610354D02*
X0705472D01*
X0703464Y0608385D02*
Y0612362D01*
X0691456Y0600354D02*
X0695472D01*
X0693464Y0598385D02*
Y0602362D01*
X0691456Y0590354D02*
X0695472D01*
X0693464Y0588385D02*
Y0592362D01*
X0691456Y0580354D02*
X0695472D01*
X0693464Y0578385D02*
Y0582362D01*
X0691456Y0570354D02*
X0695472D01*
X0693464Y0568385D02*
Y0572362D01*
X0691456Y0560354D02*
X0695472D01*
X0693464Y0558385D02*
Y0562362D01*
X0691456Y0550354D02*
X0695472D01*
X0693464Y0548385D02*
Y0552362D01*
X0701456Y0600354D02*
X0705472D01*
X0703464Y0598385D02*
Y0602362D01*
X0701456Y0590354D02*
X0705472D01*
X0703464Y0588385D02*
Y0592362D01*
X0701456Y0580354D02*
X0705472D01*
X0703464Y0578385D02*
Y0582362D01*
X0701456Y0570354D02*
X0705472D01*
X0703464Y0568385D02*
Y0572362D01*
X0701456Y0560354D02*
X0705472D01*
X0703464Y0558385D02*
Y0562362D01*
X0701456Y0550354D02*
X0705472D01*
X0703464Y0548385D02*
Y0552362D01*
X0691456Y0540354D02*
X0695472D01*
X0693464Y0538385D02*
Y0542362D01*
X0701456Y0540354D02*
X0705472D01*
X0703464Y0538385D02*
Y0542362D01*
X0691456Y0530354D02*
X0695472D01*
X0693464Y0528385D02*
Y0532362D01*
X0691456Y0520354D02*
X0695472D01*
X0693464Y0518385D02*
Y0522362D01*
X0691456Y0510354D02*
X0695472D01*
X0693464Y0508385D02*
Y0512362D01*
X0691456Y0500354D02*
X0695472D01*
X0693464Y0498385D02*
Y0502362D01*
X0691456Y0490354D02*
X0695472D01*
X0693464Y0488385D02*
Y0492362D01*
X0701456Y0530354D02*
X0705472D01*
X0703464Y0528385D02*
Y0532362D01*
X0701456Y0520354D02*
X0705472D01*
X0703464Y0518385D02*
Y0522362D01*
X0701456Y0510354D02*
X0705472D01*
X0703464Y0508385D02*
Y0512362D01*
X0701456Y0500354D02*
X0705472D01*
X0703464Y0498385D02*
Y0502362D01*
X0701456Y0490354D02*
X0705472D01*
X0703464Y0488385D02*
Y0492362D01*
X0701456Y0480354D02*
X0705472D01*
X0703464Y0478385D02*
Y0482362D01*
X0173818Y0615D02*
X0177165D01*
X0175511Y0613346D02*
Y0616653D01*
X0173818Y0605D02*
X0177165D01*
X0175511Y0603307D02*
Y0606692D01*
X0173818Y0595D02*
X0177165D01*
X0175511Y0593346D02*
Y0596653D01*
X0173818Y0585D02*
X0177165D01*
X0175511Y0583307D02*
Y0586653D01*
X0173818Y0575D02*
X0177165D01*
X0175511Y0573307D02*
Y0576692D01*
X0173818Y0565D02*
X0177165D01*
X0175511Y0563346D02*
Y0566653D01*
X0173818Y0555D02*
X0177165D01*
X0175511Y0553307D02*
Y0556692D01*
X0173818Y0545D02*
X0177165D01*
X0175511Y0543346D02*
Y0546653D01*
X0173818Y0525D02*
X0177165D01*
X0175511Y0523346D02*
Y0526653D01*
X0173818Y0515D02*
X0177165D01*
X0175511Y0513307D02*
Y0516692D01*
X0173818Y0505D02*
X0177165D01*
X0175511Y0503346D02*
Y0506692D01*
X0173818Y0495D02*
X0177165D01*
X0175511Y0493346D02*
Y0496653D01*
X0173818Y0485D02*
X0177165D01*
X0175511Y0483307D02*
Y0486653D01*
X0173818Y0475D02*
X0177165D01*
X0175511Y0473307D02*
Y0476653D01*
X0173818Y0465D02*
X0177165D01*
X0175511Y0463307D02*
Y0466692D01*
X0173818Y0455D02*
X0177165D01*
X0175511Y0453307D02*
Y0456692D01*
X0173818Y0435D02*
X0177165D01*
X0175511Y0433346D02*
Y0436692D01*
X0173818Y0425D02*
X0177165D01*
X0175511Y0423346D02*
Y0426692D01*
X0173818Y0415D02*
X0177165D01*
X0175511Y0413346D02*
Y0416653D01*
X0173818Y0405D02*
X0177165D01*
X0175511Y0403307D02*
Y0406653D01*
X0173818Y0395D02*
X0177165D01*
X0175511Y0393307D02*
Y0396653D01*
X0173818Y0385D02*
X0177165D01*
X0175511Y0383307D02*
Y0386653D01*
X0173818Y0375D02*
X0177165D01*
X0175511Y0373307D02*
Y0376692D01*
X0173818Y0365D02*
X0177165D01*
X0175511Y0363346D02*
Y0366692D01*
X0193818Y0355D02*
X0197165D01*
X0195511Y0353346D02*
Y0356692D01*
X0203818Y0345D02*
X0207165D01*
X0205511Y0343346D02*
Y0346692D01*
X0203818Y0355D02*
X0207165D01*
X0205511Y0353346D02*
Y0356692D01*
X0213818Y0345D02*
X0217165D01*
X0215511Y0343346D02*
Y0346692D01*
X0213818Y0355D02*
X0217165D01*
X0215511Y0353346D02*
Y0356692D01*
X0223818Y0345D02*
X0227165D01*
X0225511Y0343346D02*
Y0346692D01*
X0223818Y0355D02*
X0227165D01*
X0225511Y0353346D02*
Y0356692D01*
X0169212Y067D02*
X0181811D01*
X0175511Y06637D02*
Y0676299D01*
X0189212Y0465D02*
X0201811D01*
X0195511Y04587D02*
Y0471299D01*
X0299212Y0465D02*
X0311811D01*
X0305511Y04587D02*
Y0471299D01*
X0359212Y0665D02*
X0371811D01*
X0365511Y06587D02*
Y0671299D01*
X0169212Y0345D02*
X0181811D01*
X0175511Y03387D02*
Y0351299D01*
X0233818Y0355D02*
X0237165D01*
X0235511Y0353346D02*
Y0356692D01*
X0233818Y0345D02*
X0237165D01*
X0235511Y0343346D02*
Y0346692D01*
X0243818Y0355D02*
X0247165D01*
X0245511Y0353346D02*
Y0356692D01*
X0243818Y0345D02*
X0247165D01*
X0245511Y0343346D02*
Y0346692D01*
X0253818Y0355D02*
X0257165D01*
X0255511Y0353346D02*
Y0356692D01*
X0253818Y0345D02*
X0257165D01*
X0255511Y0343346D02*
Y0346692D01*
X0263818Y0345D02*
X0267165D01*
X0265511Y0343346D02*
Y0346692D01*
X0273818Y0355D02*
X0277165D01*
X0275511Y0353346D02*
Y0356692D01*
X0273818Y0345D02*
X0277165D01*
X0275511Y0343346D02*
Y0346692D01*
X0283818Y0355D02*
X0287165D01*
X0285511Y0353346D02*
Y0356692D01*
X0283818Y0345D02*
X0287165D01*
X0285511Y0343346D02*
Y0346692D01*
X0293818Y0345D02*
X0297165D01*
X0295511Y0343346D02*
Y0346692D01*
X0303818Y0345D02*
X0307165D01*
X0305511Y0343346D02*
Y0346692D01*
X0313818Y0355D02*
X0317165D01*
X0315511Y0353346D02*
Y0356692D01*
X0313818Y0345D02*
X0317165D01*
X0315511Y0343346D02*
Y0346692D01*
X0323818Y0345D02*
X0327165D01*
X0325511Y0343346D02*
Y0346692D01*
X0333818Y0355D02*
X0337165D01*
X0335511Y0353346D02*
Y0356692D01*
X0333818Y0345D02*
X0337165D01*
X0335511Y0343346D02*
Y0346692D01*
X0343818Y0355D02*
X0347165D01*
X0345511Y0353346D02*
Y0356692D01*
X0343818Y0345D02*
X0347165D01*
X0345511Y0343346D02*
Y0346692D01*
X0353818Y0355D02*
X0357165D01*
X0355511Y0353346D02*
Y0356692D01*
X0353818Y0345D02*
X0357165D01*
X0355511Y0343346D02*
Y0346692D01*
X0363818Y0355D02*
X0367165D01*
X0365511Y0353346D02*
Y0356692D01*
X0363818Y0345D02*
X0367165D01*
X0365511Y0343346D02*
Y0346692D01*
X0363818Y0385D02*
X0367165D01*
X0365511Y0383307D02*
Y0386653D01*
X0363818Y0395D02*
X0367165D01*
X0365511Y0393307D02*
Y0396653D01*
X0363818Y0405D02*
X0367165D01*
X0365511Y0403307D02*
Y0406653D01*
X0363818Y0415D02*
X0367165D01*
X0365511Y0413346D02*
Y0416653D01*
X0363818Y0425D02*
X0367165D01*
X0365511Y0423346D02*
Y0426692D01*
X0363818Y0435D02*
X0367165D01*
X0365511Y0433346D02*
Y0436692D01*
X0363818Y0445D02*
X0367165D01*
X0365511Y0443346D02*
Y0446692D01*
X0363818Y0455D02*
X0367165D01*
X0365511Y0453307D02*
Y0456692D01*
X0363818Y0475D02*
X0367165D01*
X0365511Y0473307D02*
Y0476653D01*
X0363818Y0485D02*
X0367165D01*
X0365511Y0483307D02*
Y0486653D01*
X0363818Y0495D02*
X0367165D01*
X0365511Y0493346D02*
Y0496653D01*
X0363818Y0505D02*
X0367165D01*
X0365511Y0503346D02*
Y0506692D01*
X0363818Y0515D02*
X0367165D01*
X0365511Y0513307D02*
Y0516692D01*
X0363818Y0525D02*
X0367165D01*
X0365511Y0523346D02*
Y0526653D01*
X0363818Y0560984D02*
X0367165D01*
X0365511Y055933D02*
Y0562677D01*
X0363818Y0570984D02*
X0367165D01*
X0365511Y056933D02*
Y0572677D01*
X0363818Y0580984D02*
X0367165D01*
X0365511Y057933D02*
Y0582677D01*
X0363818Y0590984D02*
X0367165D01*
X0365511Y058933D02*
Y0592677D01*
X0363818Y0600984D02*
X0367165D01*
X0365511Y059933D02*
Y0602677D01*
X0363818Y0610984D02*
X0367165D01*
X0365511Y060933D02*
Y0612677D01*
X0363818Y0620984D02*
X0367165D01*
X0365511Y061933D02*
Y0622677D01*
X0363818Y0630984D02*
X0367165D01*
X0365511Y062933D02*
Y0632677D01*
X0363818Y0640984D02*
X0367165D01*
X0365511Y063933D02*
Y0642677D01*
X0363818Y0650984D02*
X0367165D01*
X0365511Y064933D02*
Y0652677D01*
X0359212Y037D02*
X0371811D01*
X0365511Y03637D02*
Y0376299D01*
X0775078Y0882007D02*
X0778228D01*
X0776653Y0880433D02*
Y0883582D01*
X0922598Y0067992D02*
X0925393D01*
X0924015Y0066614D02*
Y0069409D01*
X0856614Y0144015D02*
X0859409D01*
X0857992Y0142598D02*
Y0145393D01*
X0925314Y0227204D02*
X092811D01*
X0926692Y0225787D02*
Y0228582D01*
X0921102Y0249015D02*
X0923897D01*
X0922519Y0247598D02*
Y0250393D01*
X0851614Y0272007D02*
X0854409D01*
X0852992Y027059D02*
Y0273385D01*
X085059Y0244015D02*
X0853385D01*
X0852007Y0242598D02*
Y0245393D01*
X0833582Y0104488D02*
X0836417D01*
X0835Y010311D02*
Y0105905D01*
X0783582Y0152992D02*
X0786417D01*
X0785Y0151614D02*
Y0154409D01*
X0219606Y0617519D02*
X0222401D01*
X0220984Y0616102D02*
Y0618897D01*
X021811Y0512992D02*
X0220905D01*
X0219488Y0511614D02*
Y0514409D01*
X0891614Y019D02*
X0894409D01*
X0892992Y0188582D02*
Y0191417D01*
X077059Y0429015D02*
X0773385D01*
X0772007Y0427598D02*
Y0430393D01*
X0220118Y0413503D02*
X0222913D01*
X0221496Y0412086D02*
Y0414881D01*
X0151614Y0355511D02*
X0154409D01*
X0152992Y0354094D02*
Y0356889D01*
X0346614Y0490984D02*
X0349409D01*
X0347992Y0489606D02*
Y0492401D01*
X033059Y0491496D02*
X0333385D01*
X0332007Y0490118D02*
Y0492913D01*
X0351614Y0505D02*
X0354409D01*
X0352992Y0503582D02*
Y0506417D01*
X089559Y0047007D02*
X0898385D01*
X0897007Y004559D02*
Y0048385D01*
X070559Y021D02*
X0708385D01*
X0707007Y0208582D02*
Y0211417D01*
X0653582Y0524015D02*
X0656417D01*
X0655Y0522598D02*
Y0525393D01*
X0342834Y0525D02*
X0345629D01*
X0344251Y0523582D02*
Y0526417D01*
X0931614Y0125511D02*
X0934409D01*
X0932992Y0124094D02*
Y0126889D01*
X0760118Y0254488D02*
X0762913D01*
X0761496Y025311D02*
Y0255905D01*
X0718307Y0419685D02*
X0721102D01*
X0719685Y0418307D02*
Y0421102D01*
X0735118Y0481496D02*
X0737913D01*
X0736496Y0480118D02*
Y0482913D01*
X0776102Y0387007D02*
X0778897D01*
X0777519Y038559D02*
Y0388385D01*
X0761102Y0761496D02*
X0763897D01*
X0762519Y0760118D02*
Y0762913D01*
X0305118Y0520511D02*
X0307913D01*
X0306496Y0519094D02*
Y0521889D01*
X0276102Y0517007D02*
X0278897D01*
X0277519Y051559D02*
Y0518385D01*
X0809094Y0245D02*
X0811889D01*
X0810511Y0243582D02*
Y0246417D01*
X0802598Y0462992D02*
X0805393D01*
X0804015Y0461614D02*
Y0464409D01*
X0289606Y0525511D02*
X0292401D01*
X0290984Y0524094D02*
Y0526889D01*
X0795118Y030248D02*
X0797913D01*
X0796496Y0301102D02*
Y0303897D01*
X0434606Y0214488D02*
X0437401D01*
X0435984Y021311D02*
Y0215905D01*
X0399094Y0467519D02*
X0401889D01*
X0400511Y0466102D02*
Y0468897D01*
X0635118Y0866496D02*
X0637913D01*
X0636496Y0865118D02*
Y0867913D01*
X0586614Y0864015D02*
X0589409D01*
X0587992Y0862598D02*
Y0865393D01*
X0164606Y0219015D02*
X0167401D01*
X0165984Y0217598D02*
Y0220393D01*
X0091614Y0404488D02*
X0094409D01*
X0092992Y040311D02*
Y0405905D01*
X0098582Y0359015D02*
X0101417D01*
X01Y0357598D02*
Y0360393D01*
X008559Y0299488D02*
X0088385D01*
X0087007Y029811D02*
Y0300905D01*
X0086614Y0167007D02*
X0089409D01*
X0087992Y016559D02*
Y0168385D01*
X0086102Y0104015D02*
X0088897D01*
X0087519Y0102598D02*
Y0105393D01*
X0012086Y0297519D02*
X0014881D01*
X0013503Y0296102D02*
Y0298897D01*
X0021102Y0345D02*
X0023897D01*
X0022519Y0343582D02*
Y0346417D01*
X024559Y0517992D02*
X0248385D01*
X0247007Y0516614D02*
Y0519409D01*
X020059Y0377007D02*
X0203385D01*
X0202007Y037559D02*
Y0378385D01*
X007559Y0308503D02*
X0078385D01*
X0077007Y0307086D02*
Y0309881D01*
X0151102Y0289488D02*
X0153897D01*
X0152519Y028811D02*
Y0290905D01*
X009559Y0207992D02*
X0098385D01*
X0097007Y0206614D02*
Y0209409D01*
X0204606Y0172007D02*
X0207401D01*
X0205984Y017059D02*
Y0173385D01*
X0374094Y0168503D02*
X0376889D01*
X0375511Y0167086D02*
Y0169881D01*
X0021614Y021248D02*
X0024409D01*
X0022992Y0211102D02*
Y0213897D01*
X0131614Y0409488D02*
X0134409D01*
X0132992Y040811D02*
Y0410905D01*
X0135118Y0197519D02*
X0137913D01*
X0136496Y0196102D02*
Y0198897D01*
X030559Y0274015D02*
X0308385D01*
X0307007Y0272598D02*
Y0275393D01*
X0199094Y0233503D02*
X0201889D01*
X0200511Y0232086D02*
Y0234881D01*
X0005118Y0125984D02*
X0007913D01*
X0006496Y0124606D02*
Y0127401D01*
X0396614Y0342007D02*
X0399409D01*
X0397992Y034059D02*
Y0343385D01*
X0715118Y0822007D02*
X0717913D01*
X0716496Y082059D02*
Y0823385D01*
X0941614Y0815984D02*
X0944409D01*
X0942992Y0814606D02*
Y0817401D01*
X0863582Y085D02*
X0866417D01*
X0865Y0848582D02*
Y0851417D01*
M02*