%FSTAX25Y25*%
%MOIN*%
%SFA1B1*%

%IPPOS*%
%ADD34C,0.007874*%
%ADD35C,0.005118*%
%ADD36C,0.005905*%
%ADD48C,0.003937*%
G54D34*
X0692952Y070685D02*
D01*
D01*
G75*
G03X0692165I-0000393J0D01*
G74*G01*
D01*
G75*
G03X0692952I0000393J0D01*
G74*G01*
X005559Y0905551D02*
Y091244D01*
X0042401D02*
X005559D01*
X0042401Y0905551D02*
Y091244D01*
Y0905551D02*
X005559D01*
X0395196Y0875669D02*
Y0897322D01*
Y0875669D02*
X0420787D01*
Y0897322*
X0395196D02*
X0420787D01*
X0563543Y0781535D02*
X061748D01*
Y0835472*
X0563543D02*
X061748D01*
X0563543Y0781535D02*
Y0835472D01*
X0201338Y0807322D02*
X0242677D01*
Y0848661*
X0201338D02*
X0242677D01*
X0201338Y0807322D02*
Y0848661D01*
X0689566Y0822913D02*
X0696456D01*
Y0836102*
X0689566D02*
X0696456D01*
X0689566Y0822913D02*
Y0836102D01*
X0588149Y0876692D02*
Y0898346D01*
Y0876692D02*
X061374D01*
Y0898346*
X0588149D02*
X061374D01*
X0495708Y0874173D02*
Y0895826D01*
Y0874173D02*
X0521299D01*
Y0895826*
X0495708D02*
X0521299D01*
X0301692Y0876692D02*
Y0898346D01*
Y0876692D02*
X0327283D01*
Y0898346*
X0301692D02*
X0327283D01*
X0195196Y0878188D02*
Y0899842D01*
Y0878188D02*
X0220787D01*
Y0899842*
X0195196D02*
X0220787D01*
X0860787Y0876692D02*
Y0898346D01*
Y0876692D02*
X0886377D01*
Y0898346*
X0860787D02*
X0886377D01*
X0748031Y0783031D02*
Y0836968D01*
Y0783031D02*
X0801968D01*
Y0836968*
X0748031D02*
X0801968D01*
X0650748Y0070157D02*
Y0091811D01*
X0625157D02*
X0650748D01*
X0625157Y0070157D02*
Y0091811D01*
Y0070157D02*
X0650748D01*
X0548307Y0081692D02*
Y0103346D01*
X0522716D02*
X0548307D01*
X0522716Y0081692D02*
Y0103346D01*
Y0081692D02*
X0548307D01*
X0441811Y0078661D02*
Y0100314D01*
X041622D02*
X0441811D01*
X041622Y0078661D02*
Y0100314D01*
Y0078661D02*
X0441811D01*
X0324291Y0084173D02*
Y0105826D01*
X02987D02*
X0324291D01*
X02987Y0084173D02*
Y0105826D01*
Y0084173D02*
X0324291D01*
X0222716Y0087165D02*
Y0108818D01*
X0197125D02*
X0222716D01*
X0197125Y0087165D02*
Y0108818D01*
Y0087165D02*
X0222716D01*
X0762283Y0078661D02*
Y0100314D01*
X0736692D02*
X0762283D01*
X0736692Y0078661D02*
Y0100314D01*
Y0078661D02*
X0762283D01*
X0119566Y0876889D02*
X0126456D01*
Y0890078*
X0119566D02*
X0126456D01*
X0119566Y0876889D02*
Y0890078D01*
X0706811Y0874173D02*
Y0895826D01*
X068122D02*
X0706811D01*
X068122Y0874173D02*
Y0895826D01*
Y0874173D02*
X0706811D01*
X0106574Y0098582D02*
X0113464D01*
Y0111771*
X0106574D02*
X0113464D01*
X0106574Y0098582D02*
Y0111771D01*
X0821181Y0369842D02*
X0842834D01*
X0821181Y0344251D02*
Y0369842D01*
Y0344251D02*
X0842834D01*
Y0369842*
X0819685Y0503307D02*
X0841338D01*
X0819685Y0477716D02*
Y0503307D01*
Y0477716D02*
X0841338D01*
Y0503307*
X0818188Y0600866D02*
X0839842D01*
X0818188Y0575275D02*
Y0600866D01*
Y0575275D02*
X0839842D01*
Y0600866*
X0828188Y0721377D02*
X0849842D01*
X0828188Y0695787D02*
Y0721377D01*
Y0695787D02*
X0849842D01*
Y0721377*
X0829685Y0846811D02*
X0851338D01*
X0829685Y082122D02*
Y0846811D01*
Y082122D02*
X0851338D01*
Y0846811*
X0075157Y0831692D02*
X0096811D01*
Y0857283*
X0075157D02*
X0096811D01*
X0075157Y0831692D02*
Y0857283D01*
Y0417204D02*
X0096811D01*
Y0442795*
X0075157D02*
X0096811D01*
X0075157Y0417204D02*
Y0442795D01*
X0074173Y068622D02*
X0095826D01*
Y0711811*
X0074173D02*
X0095826D01*
X0074173Y068622D02*
Y0711811D01*
X0075157Y0756692D02*
X0096811D01*
Y0782283*
X0075157D02*
X0096811D01*
X0075157Y0756692D02*
Y0782283D01*
X0074173Y0618779D02*
X0095826D01*
Y064437*
X0074173D02*
X0095826D01*
X0074173Y0618779D02*
Y064437D01*
X0070669Y052622D02*
X0092322D01*
Y0551811*
X0070669D02*
X0092322D01*
X0070669Y052622D02*
Y0551811D01*
G54D35*
X0503582Y0703307D02*
D01*
D01*
G75*
G03X0491771Y0691496I0J-0011811D01*
G74*G01*
Y0380472D02*
D01*
D01*
G75*
G03X0503582Y0368661I0011811J0D01*
G74*G01*
X0700433D02*
D01*
D01*
G75*
G03X0712244Y0380472I0J0011811D01*
G74*G01*
Y0691496D02*
D01*
D01*
G75*
G03X0700433Y0703307I-0011811J0D01*
G74*G01*
X0165433Y0339055D02*
D01*
D01*
G75*
G03X016937Y0335118I0003937J0D01*
G74*G01*
Y0725118D02*
D01*
D01*
G75*
G03X0165433Y0721181I0J-0003937D01*
G74*G01*
X0375433D02*
D01*
D01*
G75*
G03X0371496Y0725118I-0003937J0D01*
G74*G01*
X0501614Y0358818D02*
Y0443464D01*
Y0358818D02*
X0702401D01*
Y0443464*
X0501614D02*
X0702401D01*
X0503582Y0703307D02*
X0700433D01*
X0491771Y0380472D02*
Y0691496D01*
X0503582Y0368661D02*
X0700433D01*
X0712244Y0380472D02*
Y0691496D01*
X0369448Y0335118D02*
X0375433Y0341102D01*
X0314448Y0325118D02*
X0324448Y0335118D01*
X0185433Y0325118D02*
X0314448D01*
X0175433Y0335118D02*
X0185433Y0325118D01*
X016937Y0335118D02*
X0175433D01*
X0165433Y0339055D02*
Y0721181D01*
X016937Y0725118D02*
X0371496D01*
X0375433Y0341102D02*
Y0721181D01*
X0324448Y0335118D02*
X0369448D01*
G54D36*
X0812086Y0882007D02*
D01*
D01*
G75*
G03X0760905I-0025590J0D01*
G74*G01*
D01*
G75*
G03X0812086I0025590J0D01*
G74*G01*
G54D48*
X087996Y0254055D02*
D01*
D01*
G75*
G03X0876023I-0001968J0D01*
G74*G01*
D01*
G75*
G03X087996I0001968J0D01*
G74*G01*
X0890039Y0126062D02*
D01*
D01*
G75*
G03X0886102I-0001968J0D01*
G74*G01*
D01*
G75*
G03X0890039I0001968J0D01*
G74*G01*
X0032125Y0310039D02*
D01*
D01*
G75*
G03X0028188I-0001968J0D01*
G74*G01*
D01*
G75*
G03X0032125I0001968J0D01*
G74*G01*
X0037047Y0174055D02*
D01*
D01*
G75*
G03X003311I-0001968J0D01*
G74*G01*
D01*
G75*
G03X0037047I0001968J0D01*
G74*G01*
X0874448Y0206417D02*
Y0257598D01*
X090437Y0206417D02*
Y0257598D01*
X0874448D02*
X090437D01*
X0874448Y0206417D02*
X090437D01*
X0884527Y0078425D02*
Y0129606D01*
X0914448Y0078425D02*
Y0129606D01*
X0884527D02*
X0914448D01*
X0884527Y0078425D02*
X0914448D01*
X0026614Y0262401D02*
Y0313582D01*
X0056535Y0262401D02*
Y0313582D01*
X0026614D02*
X0056535D01*
X0026614Y0262401D02*
X0056535D01*
X0031535Y0126417D02*
Y0177598D01*
X0061456Y0126417D02*
Y0177598D01*
X0031535D02*
X0061456D01*
X0031535Y0126417D02*
X0061456D01*
M02*